<?xml version="1.0" standalone="no"?>
<!DOCTYPE svg PUBLIC "-//W3C//DTD SVG 20010904//EN"
 "http://www.w3.org/TR/2001/REC-SVG-20010904/DTD/svg10.dtd">
<svg version="1.0" xmlns="http://www.w3.org/2000/svg"
 width="800.000000pt" height="543.000000pt" viewBox="0 0 800.000000 543.000000"
 preserveAspectRatio="xMidYMid meet">

<g transform="translate(0.000000,543.000000) scale(0.100000,-0.100000)"
fill="#000000" stroke="none">
<path d="M6685 5384 c-60 -25 -148 -58 -195 -75 -47 -17 -152 -56 -235 -89
-168 -65 -384 -135 -645 -209 -96 -27 -245 -69 -330 -94 -138 -41 -619 -167
-710 -187 -19 -4 -84 -20 -145 -34 -60 -14 -191 -44 -290 -66 -99 -22 -225
-52 -280 -65 -55 -14 -206 -45 -335 -69 -129 -25 -291 -57 -360 -71 -313 -63
-895 -161 -1405 -235 -315 -46 -455 -54 -875 -47 -386 7 -582 23 -792 65 -66
14 -88 15 -88 6 0 -7 14 -17 30 -23 l30 -10 0 -130 c0 -112 -15 -237 -35 -303
-10 -29 25 -23 107 20 40 21 83 44 95 52 23 15 20 17 161 -85 34 -25 66 -45
71 -45 14 0 44 276 39 355 l-5 75 88 0 c76 0 90 -3 98 -19 6 -10 13 -68 17
-127 6 -101 -3 -191 -33 -311 -9 -39 33 -28 122 32 45 30 86 55 90 55 5 0 16
7 25 15 15 14 25 11 101 -31 46 -25 99 -57 118 -70 30 -20 37 -22 44 -9 4 9 8
114 9 234 l0 218 116 6 c64 4 117 5 118 4 2 -1 12 -50 24 -107 18 -87 21 -129
18 -247 -3 -113 -1 -143 9 -143 13 0 128 72 173 109 14 11 30 21 37 21 6 0 58
-16 114 -35 57 -19 107 -35 111 -35 7 0 5 27 -17 230 -8 69 -17 155 -20 192
l-6 67 33 5 c18 3 73 12 122 20 49 8 93 13 97 10 16 -10 49 -188 58 -308 5
-70 13 -132 18 -137 10 -10 130 66 180 113 36 34 35 34 191 -12 106 -32 112
-29 93 43 -22 82 -74 377 -68 384 8 7 214 40 220 34 16 -16 66 -251 73 -343 4
-54 11 -98 16 -98 13 0 51 30 113 89 28 26 55 50 61 54 6 4 58 -9 115 -28 64
-22 107 -31 112 -26 10 10 -14 143 -59 325 -14 54 -21 102 -17 106 4 4 55 17
113 28 80 16 106 18 112 9 25 -40 84 -379 72 -412 -4 -10 0 -15 15 -15 12 0
52 29 96 71 85 81 62 78 223 28 45 -14 76 -19 82 -13 10 10 -5 87 -55 289 -26
104 -30 141 -17 148 9 6 279 67 295 67 24 0 81 -239 93 -382 5 -61 11 -88 20
-88 7 0 48 33 91 74 l79 75 113 -35 c62 -20 115 -33 118 -30 7 7 -17 130 -57
296 -15 63 -31 132 -34 152 -7 41 -21 34 129 71 33 9 68 18 77 22 32 13 114
-180 163 -382 24 -100 33 -105 93 -52 28 23 63 64 78 90 26 44 33 49 65 49 20
0 71 -9 114 -20 81 -21 101 -19 90 9 -4 9 -15 49 -26 89 -29 107 -47 158 -89
249 l-39 83 42 10 c23 6 65 18 94 26 28 7 56 14 62 14 18 0 169 -316 187 -390
9 -36 19 -69 24 -73 8 -9 90 84 132 149 26 41 27 42 75 37 26 -3 81 -11 121
-17 40 -7 75 -9 78 -5 7 12 -80 224 -135 327 l-49 92 26 14 c15 7 78 30 141
51 109 36 114 37 125 19 31 -52 67 -153 96 -268 22 -84 39 -130 50 -136 13 -7
29 3 69 43 29 29 62 69 74 90 19 33 25 37 61 37 23 0 73 -9 112 -19 78 -20
102 -16 86 15 -5 11 -13 37 -17 59 -10 58 -50 173 -90 261 -19 42 -33 80 -30
84 5 9 155 64 159 59 18 -22 129 -280 143 -331 9 -38 21 -68 25 -68 13 0 85
83 120 137 37 58 24 56 201 31 43 -6 80 -8 83 -5 16 15 -121 317 -143 317 -18
0 -18 -1 21 -78 41 -82 86 -190 86 -208 0 -10 -6 -11 -23 -5 -13 5 -54 12 -92
16 -39 4 -75 11 -80 16 -15 12 -26 1 -73 -72 -51 -79 -90 -119 -95 -98 -3 8
-12 41 -22 74 -9 33 -41 111 -72 174 -30 62 -53 115 -51 117 2 1 35 17 73 33
l70 30 -45 0 c-30 0 -81 -15 -155 -45z m-112 -221 c44 -105 94 -259 86 -267
-2 -2 -33 2 -69 10 -36 7 -82 14 -102 14 -35 0 -40 -4 -79 -65 -42 -66 -94
-114 -108 -99 -4 5 -20 56 -34 113 -15 57 -43 141 -63 187 -19 46 -33 88 -30
93 4 5 41 21 84 35 42 15 118 41 167 60 50 19 93 32 96 30 3 -2 26 -52 52
-111z m-706 -209 c51 -95 133 -279 133 -297 0 -10 -22 -9 -102 5 -57 9 -108
16 -114 13 -7 -2 -26 -27 -43 -57 -17 -29 -46 -71 -65 -92 l-34 -40 -11 45
c-19 74 -42 129 -109 266 -36 73 -64 134 -61 136 11 8 345 105 354 103 6 -1
29 -38 52 -82z m-623 -200 c44 -99 103 -280 95 -289 -2 -2 -33 3 -68 11 -35 8
-82 14 -104 12 -38 -3 -43 -7 -73 -58 -38 -65 -104 -127 -115 -108 -4 7 -17
53 -28 101 -22 92 -54 181 -102 279 -15 32 -24 60 -20 62 4 3 70 21 147 40 78
20 152 40 165 45 50 20 55 15 103 -95z m-704 -106 c24 -90 30 -117 59 -258 17
-79 29 -145 27 -147 -2 -2 -45 10 -95 27 -51 16 -100 30 -110 30 -9 0 -43 -27
-76 -60 -33 -33 -64 -60 -71 -60 -7 0 -13 28 -17 73 -6 86 -31 211 -57 287
-12 36 -15 58 -9 65 8 8 290 81 326 84 7 1 17 -18 23 -41z m-707 -240 c40
-170 60 -278 54 -285 -4 -3 -49 9 -102 26 -68 23 -100 29 -113 22 -9 -5 -42
-35 -72 -65 -30 -31 -57 -56 -61 -56 -3 0 -10 37 -13 83 -4 45 -20 136 -36
201 -16 66 -29 121 -27 122 3 3 308 61 328 63 13 1 22 -24 42 -111z m-650 -40
c3 -18 22 -109 42 -201 21 -92 35 -170 33 -172 -3 -3 -45 8 -94 25 -49 16 -98
30 -109 30 -11 0 -49 -29 -86 -66 l-67 -66 -6 38 c-3 22 -8 68 -12 103 -3 35
-19 110 -34 168 -18 70 -23 106 -16 108 14 4 317 63 332 64 7 1 14 -14 17 -31z
m-629 -119 c3 -17 6 -48 6 -68 0 -20 14 -97 30 -171 16 -74 27 -137 24 -141
-2 -3 -30 2 -61 13 -32 10 -84 25 -116 33 l-58 13 -50 -44 c-44 -39 -121 -94
-132 -94 -2 0 -7 47 -10 104 -4 58 -16 152 -28 211 -12 58 -20 107 -18 109 5
4 354 63 385 65 16 1 23 -6 28 -30z m-2314 -93 c58 -8 131 -18 162 -21 37 -5
59 -12 63 -22 17 -46 -3 -354 -25 -377 -9 -9 -170 101 -170 116 0 15 -30 8
-68 -15 -58 -37 -132 -77 -141 -77 -5 0 -2 28 6 63 7 34 16 123 19 197 6 156
8 163 31 156 10 -3 65 -12 123 -20z m1584 -18 c3 -13 6 -43 6 -68 0 -25 7 -94
15 -155 8 -60 15 -132 15 -159 0 -42 -2 -47 -17 -41 -10 4 -57 21 -104 38
l-87 31 -48 -43 c-27 -24 -66 -52 -86 -62 -44 -23 -41 -32 -39 101 1 75 -17
237 -35 312 -6 26 -5 26 63 33 37 4 109 13 158 20 138 19 152 19 159 -7z
m-682 -70 c7 -62 3 -366 -4 -374 -4 -3 -55 22 -114 56 -59 33 -112 59 -118 56
-6 -3 -54 -34 -106 -69 -52 -36 -97 -63 -99 -61 -2 2 2 52 9 111 7 59 11 156
8 216 l-5 107 213 0 212 0 4 -42z"/>
<path d="M1620 3930 c0 -5 5 -10 11 -10 5 0 7 5 4 10 -3 6 -8 10 -11 10 -2 0
-4 -4 -4 -10z"/>
<path d="M905 3939 c-10 -15 1 -23 20 -15 9 3 13 10 10 16 -8 13 -22 13 -30
-1z"/>
<path d="M975 3920 c-3 -5 -1 -10 4 -10 6 0 11 5 11 10 0 6 -2 10 -4 10 -3 0
-8 -4 -11 -10z"/>
<path d="M7465 5322 c51 -131 67 -162 73 -144 2 7 32 59 67 115 l62 102 112 0
c61 -1 111 3 111 7 0 16 -31 22 -130 26 l-106 3 -23 -43 c-53 -97 -94 -157
-102 -152 -5 3 -9 9 -9 14 0 23 -74 180 -85 180 -9 0 1 -35 30 -108z"/>
<path d="M2705 5411 c-6 -11 9 -23 19 -14 9 9 7 23 -3 23 -6 0 -12 -4 -16 -9z"/>
<path d="M2488 5374 c-5 -4 -8 -18 -8 -30 0 -34 40 -57 84 -48 41 7 48 30 17
58 -21 19 -82 32 -93 20z m80 -35 c3 -18 -29 -31 -48 -19 -7 4 -10 16 -7 25 9
21 51 16 55 -6z"/>
<path d="M4996 5353 c-11 -11 -6 -23 9 -23 8 0 15 4 15 9 0 13 -16 22 -24 14z"/>
<path d="M5225 5340 c-17 -19 -15 -50 5 -50 5 0 19 9 31 21 16 16 18 23 8 35
-15 19 -22 18 -44 -6z"/>
<path d="M572 5338 c-19 -19 -14 -45 14 -67 33 -26 75 -27 104 -3 19 15 21 22
12 39 -19 36 -105 56 -130 31z m92 -24 c22 -22 11 -34 -30 -34 -23 0 -37 6
-41 16 -12 32 44 46 71 18z"/>
<path d="M776 5276 c3 -8 0 -17 -6 -21 -8 -5 -8 -11 1 -21 28 -33 68 -1 43 34
-17 24 -47 30 -38 8z"/>
<path d="M2641 5281 c-12 -8 -12 -12 -2 -25 16 -19 51 -21 51 -3 0 13 -19 37
-29 37 -4 0 -12 -4 -20 -9z"/>
<path d="M2890 5270 c-8 -5 -12 -12 -9 -15 8 -8 39 5 39 16 0 11 -11 11 -30
-1z"/>
<path d="M5145 5257 c-19 -27 -19 -46 0 -53 21 -8 45 14 45 41 0 32 -26 39
-45 12z"/>
<path d="M2520 5257 c0 -18 21 -37 41 -37 24 0 33 18 19 35 -15 19 -60 20 -60
2z"/>
<path d="M2770 5260 c0 -5 7 -10 15 -10 8 0 15 5 15 10 0 6 -7 10 -15 10 -8 0
-15 -4 -15 -10z"/>
<path d="M667 5243 c-14 -13 -6 -43 13 -53 27 -15 40 -5 40 31 0 24 -4 29 -23
29 -13 0 -27 -3 -30 -7z"/>
<path d="M4750 5220 c0 -5 4 -10 9 -10 6 0 13 5 16 10 3 6 -1 10 -9 10 -9 0
-16 -4 -16 -10z"/>
<path d="M5257 5216 c-7 -18 1 -26 25 -26 21 0 23 11 6 28 -16 16 -25 15 -31
-2z"/>
<path d="M2424 5199 c-8 -14 11 -33 25 -25 6 4 11 11 11 16 0 13 -29 20 -36 9z"/>
<path d="M3847 5204 c-3 -3 7 -42 24 -86 16 -44 29 -90 29 -102 0 -19 -4 -22
-30 -18 -46 7 -80 -21 -80 -63 0 -66 63 -95 129 -60 38 19 42 42 21 126 -17
70 -17 71 4 84 35 22 102 27 141 10 32 -13 37 -13 42 1 9 24 -18 75 -51 95
-35 22 -91 24 -148 7 -29 -9 -41 -9 -50 0 -13 13 -22 15 -31 6z"/>
<path d="M440 5175 c-10 -12 -10 -18 0 -30 21 -25 54 -15 58 18 3 23 0 27 -21
27 -14 0 -30 -7 -37 -15z"/>
<path d="M2720 5157 c0 -19 21 -37 42 -37 23 0 24 35 2 44 -26 10 -44 7 -44
-7z"/>
<path d="M1545 4908 c-2 -7 -11 -40 -20 -73 -9 -33 -26 -81 -36 -106 l-20 -46
-33 33 c-39 39 -78 51 -112 35 -28 -13 -48 -55 -39 -88 7 -29 72 -73 107 -73
54 0 75 19 113 105 l37 82 46 -9 c99 -20 182 -49 182 -63 0 -8 -9 -40 -21 -72
-11 -32 -23 -65 -25 -73 -4 -10 -10 -7 -27 13 -41 51 -121 55 -147 7 -27 -51
30 -130 94 -130 44 0 78 38 116 130 53 128 91 243 83 250 -4 4 -57 22 -118 39
-60 18 -118 36 -127 42 -25 13 -48 11 -53 -3z"/>
<path d="M6845 4847 c-4 -10 -5 -21 -1 -24 10 -10 18 4 13 24 -4 17 -4 17 -12
0z"/>
<path d="M7688 4849 c-38 -22 -13 -79 41 -92 26 -6 72 8 83 26 11 18 -11 48
-47 63 -40 16 -54 17 -77 3z m83 -28 l24 -19 -29 -11 c-51 -20 -92 13 -48 38
23 14 26 14 53 -8z"/>
<path d="M7883 4785 c4 -8 2 -17 -3 -20 -17 -10 2 -36 24 -33 27 4 33 38 10
55 -24 17 -38 17 -31 -2z"/>
<path d="M2236 4768 c-28 -40 15 -78 68 -59 31 12 34 41 8 64 -26 23 -58 21
-76 -5z m62 -10 c19 -19 14 -28 -13 -28 -27 0 -28 1 -19 24 7 19 16 20 32 4z"/>
<path d="M2392 4754 c-27 -19 -28 -30 -2 -44 39 -21 85 15 59 46 -15 18 -29
18 -57 -2z m38 -13 c0 -6 -4 -13 -10 -16 -5 -3 -10 1 -10 9 0 9 5 16 10 16 6
0 10 -4 10 -9z"/>
<path d="M7782 4751 c-18 -11 -12 -41 10 -55 25 -16 49 11 37 42 -9 23 -25 28
-47 13z m25 -33 c-3 -8 -6 -5 -6 6 -1 11 2 17 5 13 3 -3 4 -12 1 -19z"/>
<path d="M2377 4693 c-15 -14 -7 -43 12 -43 27 0 34 15 15 34 -18 18 -18 18
-27 9z"/>
<path d="M7551 4686 c-26 -31 14 -71 45 -45 8 7 14 22 12 33 -4 26 -40 33 -57
12z"/>
<path d="M596 4671 c-20 -22 -15 -51 7 -51 20 0 39 26 35 46 -5 25 -22 27 -42
5z"/>
<path d="M6734 4657 c-8 -22 -1 -30 21 -25 14 3 14 5 1 23 -14 19 -15 19 -22
2z"/>
<path d="M7720 4630 c0 -5 5 -10 10 -10 6 0 10 5 10 10 0 6 -4 10 -10 10 -5 0
-10 -4 -10 -10z"/>
<path d="M511 4581 c-16 -30 -13 -51 8 -51 24 0 44 24 39 47 -5 25 -35 28 -47
4z"/>
<path d="M625 4540 c-4 -7 -3 -16 3 -22 14 -14 45 -2 40 15 -6 16 -34 21 -43
7z"/>
<path d="M6646 4537 c-20 -14 -19 -58 1 -64 17 -6 53 33 53 57 0 23 -27 27
-54 7z"/>
<path d="M7733 4393 c-31 -12 8 -63 48 -63 25 0 32 30 13 51 -17 19 -37 22
-61 12z m44 -39 c-9 -9 -28 6 -21 18 4 6 10 6 17 -1 6 -6 8 -13 4 -17z"/>
<path d="M7127 4223 c-3 -5 -10 -28 -17 -53 -17 -65 -63 -180 -71 -180 -4 0
-10 8 -13 18 -3 10 -19 25 -35 35 -62 37 -131 9 -131 -53 0 -35 27 -66 76 -86
29 -12 38 -12 73 2 35 14 42 23 72 95 18 43 38 79 45 79 23 0 209 -51 218 -60
8 -8 -39 -160 -50 -160 -2 0 -14 11 -27 24 -29 29 -86 42 -116 27 -43 -24 -38
-98 9 -131 91 -64 140 -12 231 246 16 46 29 89 29 97 0 14 -92 48 -212 78 -27
6 -48 15 -48 20 0 11 -27 12 -33 2z"/>
<path d="M5997 4065 c-4 -8 -2 -17 3 -20 12 -8 52 19 43 28 -12 12 -41 7 -46
-8z"/>
<path d="M5670 3990 c0 -5 4 -10 9 -10 6 0 13 5 16 10 3 6 -1 10 -9 10 -9 0
-16 -4 -16 -10z"/>
<path d="M5343 3917 c-31 -14 -39 -44 -17 -68 22 -24 45 -24 74 -1 19 16 21
22 11 40 -16 31 -42 41 -68 29z m45 -40 c2 -12 -3 -17 -17 -17 -12 0 -21 6
-21 13 0 31 32 34 38 4z"/>
<path d="M5483 3893 c-30 -20 -29 -41 2 -55 19 -8 28 -8 40 2 38 32 -1 81 -42
53z m37 -23 c0 -5 -7 -10 -16 -10 -8 0 -12 5 -9 10 3 6 10 10 16 10 5 0 9 -4
9 -10z"/>
<path d="M5615 3896 c-16 -12 -18 -18 -9 -33 14 -23 34 -23 48 -1 8 14 7 21
-5 33 -13 13 -17 13 -34 1z"/>
<path d="M5454 3815 c-8 -20 4 -35 27 -35 21 0 25 20 7 38 -16 16 -27 15 -34
-3z"/>
<path d="M3883 3742 c-28 -4 -30 -28 -3 -42 25 -13 40 -5 40 20 0 23 -8 27
-37 22z"/>
<path d="M3693 3663 c-7 -2 -13 -16 -13 -29 0 -17 8 -27 27 -35 36 -13 54 -8
64 18 14 38 -32 65 -78 46z m55 -30 c2 -8 -5 -13 -17 -13 -12 0 -21 6 -21 16
0 18 31 15 38 -3z"/>
<path d="M3968 3665 c-4 -4 -4 -13 -1 -21 6 -17 -1 -18 -27 -2 -26 16 -39 2
-14 -17 21 -16 65 -16 71 0 4 14 -21 48 -29 40z"/>
<path d="M4060 3650 c0 -5 5 -10 10 -10 6 0 10 5 10 10 0 6 -4 10 -10 10 -5 0
-10 -4 -10 -10z"/>
<path d="M3809 3634 c-9 -11 -10 -20 -2 -32 14 -23 57 -27 73 -7 11 13 10 19
-5 35 -22 24 -48 26 -66 4z m51 -25 c0 -5 -7 -9 -15 -9 -15 0 -20 12 -9 23 8
8 24 -1 24 -14z"/>
<path d="M4108 3623 c6 -2 18 -2 25 0 6 3 1 5 -13 5 -14 0 -19 -2 -12 -5z"/>
<path d="M840 3554 c-24 -19 -86 -56 -137 -81 -51 -26 -93 -51 -93 -57 0 -6
13 -44 30 -83 16 -40 32 -87 35 -105 l6 -33 -45 0 c-90 0 -130 -85 -65 -139
42 -36 89 -35 131 3 l32 28 -23 99 c-12 55 -25 110 -27 124 -5 22 0 28 40 47
25 13 76 41 112 63 37 22 69 39 71 37 7 -8 43 -117 43 -133 0 -12 -7 -15 -27
-11 -81 15 -138 -70 -81 -123 33 -30 111 -28 143 5 14 13 25 29 25 35 0 6 -22
77 -49 158 -26 81 -51 159 -55 175 -3 15 -10 27 -14 27 -4 0 -27 -16 -52 -36z"/>
<path d="M6160 3577 c-66 -15 -132 -52 -179 -101 -19 -20 -43 -36 -52 -36 -30
0 -64 -20 -81 -47 -12 -20 -24 -25 -64 -28 -38 -2 -53 -9 -71 -30 -13 -14 -23
-31 -23 -38 0 -7 -15 -13 -33 -14 -20 -2 -40 -12 -54 -28 -23 -26 -43 -33 -43
-15 0 16 -48 11 -77 -7 -26 -17 -27 -17 -20 0 4 10 2 27 -3 38 -13 23 -50 26
-50 3 0 -11 -8 -14 -32 -12 -27 2 -34 8 -38 30 -5 26 -38 54 -103 88 -16 8
-40 25 -53 37 -14 13 -34 23 -45 23 -11 0 -22 7 -25 15 -4 8 -17 15 -29 15
-13 0 -36 5 -52 11 -16 7 -87 11 -168 10 -126 0 -142 -2 -156 -20 -11 -13 -24
-17 -42 -14 -29 6 -37 23 -12 23 8 0 15 4 15 8 0 19 -14 20 -39 3 -51 -35 -55
-36 -48 -12 9 36 -22 39 -49 5 l-24 -29 -16 23 c-21 31 -60 27 -57 -6 3 -19
-7 -28 -55 -49 -45 -21 -75 -27 -146 -29 -59 -2 -92 -7 -98 -16 -7 -10 -8 -9
-6 4 2 9 -1 18 -7 20 -5 2 -11 -8 -13 -20 l-4 -24 -24 23 c-21 20 -26 21 -34
9 -9 -14 -7 -30 7 -68 4 -8 0 -10 -11 -6 -24 9 -66 -4 -66 -21 0 -9 13 -15 38
-17 l37 -3 -3 -71 c-4 -73 6 -108 37 -131 14 -10 13 -14 -12 -33 -23 -18 -27
-29 -27 -69 0 -54 23 -92 70 -116 40 -20 54 -19 87 9 42 36 62 21 56 -41 -7
-63 -35 -111 -84 -147 -125 -88 -140 -221 -42 -350 35 -46 111 -114 159 -142
17 -11 16 -13 -16 -21 -28 -8 -35 -14 -34 -34 1 -21 -12 -30 -96 -72 -96 -46
-143 -57 -155 -37 -8 13 -101 13 -126 0 -20 -11 -59 2 -59 20 0 5 9 12 20 15
31 10 24 28 -7 20 -43 -12 -74 -7 -132 22 -49 24 -52 27 -36 39 15 11 23 9 54
-16 19 -17 46 -30 59 -30 53 0 152 76 152 117 0 11 -14 1 -38 -25 -43 -47 -80
-59 -121 -42 -44 18 -44 35 0 77 107 102 135 241 66 335 l-20 26 44 47 c61 65
76 90 101 170 13 41 32 78 46 90 34 29 41 94 14 137 -11 18 -18 38 -15 45 9
26 -28 82 -62 93 -25 8 -35 19 -40 41 -7 33 -55 69 -90 69 -11 0 -26 9 -32 20
-19 29 -70 52 -108 48 -24 -2 -41 4 -58 20 -17 16 -38 23 -68 24 -24 1 -57 10
-74 20 -37 22 -83 23 -114 2 -18 -13 -28 -14 -47 -5 -36 16 -86 14 -113 -5
-14 -10 -33 -14 -51 -10 -31 6 -90 -10 -90 -25 0 -5 -22 -9 -50 -9 -55 0 -90
-23 -90 -60 0 -17 -3 -19 -19 -10 -36 19 -90 12 -116 -15 -14 -13 -25 -29 -25
-35 0 -5 -16 -10 -36 -10 -38 0 -94 -44 -94 -74 0 -10 -12 -19 -29 -22 -35 -7
-59 -31 -70 -70 -5 -19 -17 -31 -40 -39 -41 -13 -71 -49 -71 -82 0 -15 -12
-34 -30 -50 -31 -26 -40 -69 -20 -89 8 -8 7 -19 -1 -37 -17 -38 -4 -76 34 -92
18 -8 45 -30 60 -50 16 -20 40 -40 53 -45 19 -8 24 -17 24 -43 0 -19 7 -54 15
-77 8 -23 15 -44 15 -46 0 -11 -115 -2 -138 10 -61 32 -88 83 -68 129 5 10 4
17 -2 17 -16 0 -34 -57 -27 -82 24 -80 149 -140 238 -115 42 12 32 -9 -13 -27
-23 -9 -69 -16 -106 -16 -62 0 -68 2 -100 34 -28 28 -34 31 -34 15 0 -10 9
-28 21 -40 53 -53 160 -65 244 -26 48 22 85 25 85 7 0 -14 -21 -23 -90 -42
-75 -19 -128 -22 -164 -8 -14 5 -26 6 -26 1 0 -14 25 -31 58 -37 37 -8 36 -4
17 -40 -33 -65 -10 -157 55 -219 l31 -30 -23 -6 c-56 -16 -73 -11 -87 28 -31
84 -161 183 -242 183 -31 0 -93 -22 -117 -43 -8 -6 -20 -12 -27 -12 -15 0
-165 -142 -165 -156 0 -12 -11 -11 -30 1 -13 9 -9 16 21 43 97 88 190 244 210
351 23 130 -11 194 -146 274 -49 29 -93 52 -98 52 -5 0 7 18 28 41 20 23 43
56 51 75 14 34 15 34 77 34 34 0 79 -4 100 -9 28 -7 37 -6 34 2 -2 7 -35 18
-73 25 -121 22 -114 19 -114 56 0 36 12 46 56 46 15 0 23 4 19 11 -4 6 -19 9
-33 8 -15 -2 -32 0 -38 4 -21 12 -26 108 -9 156 8 24 15 45 15 47 0 10 -38 2
-56 -11 -29 -22 -37 -18 -30 15 4 23 2 32 -10 37 -9 3 -19 0 -24 -6 -4 -7 -14
-13 -22 -15 -8 -1 -42 -16 -74 -33 -60 -32 -138 -57 -206 -66 -34 -5 -40 -2
-71 34 -33 40 -34 40 -122 48 -49 5 -96 5 -105 0 -8 -4 -58 -19 -110 -34 -100
-27 -185 -65 -312 -140 -77 -45 -78 -46 -78 -85 0 -44 -9 -50 -28 -20 -20 32
-32 14 -32 -46 l0 -54 -24 15 c-32 21 -66 5 -66 -30 0 -29 8 -31 27 -7 13 15
14 14 9 -17 -8 -43 -53 -114 -103 -163 -46 -45 -166 -114 -171 -99 -2 6 -8 8
-14 5 -5 -4 0 -16 13 -30 l22 -24 -52 0 c-60 0 -65 -15 -14 -41 l30 -15 -23
-21 c-13 -12 -24 -26 -24 -32 0 -17 31 -13 45 5 9 14 16 14 34 5 22 -12 81
-87 81 -102 0 -5 -20 -35 -43 -66 -95 -125 -75 -286 45 -373 48 -35 109 -56
135 -46 14 6 6 12 -35 25 -95 32 -191 138 -192 212 0 48 30 125 66 167 38 45
50 49 79 28 17 -12 18 -15 3 -47 -25 -53 -42 -118 -33 -127 4 -4 10 -1 12 6
14 38 70 137 79 139 6 2 18 -27 28 -69 10 -40 29 -90 43 -111 63 -92 158 -145
235 -133 59 10 56 10 127 -17 l65 -24 -45 -32 c-36 -27 -50 -32 -79 -27 -19 4
-46 8 -60 9 -14 1 -39 10 -57 20 -43 23 -100 22 -141 -3 -66 -40 -130 -229
-119 -353 10 -123 64 -195 152 -205 43 -4 44 -5 42 -40 l-2 -36 63 -14 c60
-13 76 -32 27 -32 -14 0 -59 -14 -101 -30 -42 -17 -82 -29 -88 -27 -6 3 -48
-16 -94 -40 -45 -25 -89 -43 -96 -40 -8 3 -34 -7 -58 -22 -123 -77 -122 -76
-109 -53 20 38 -17 27 -97 -28 -70 -47 -100 -62 -87 -41 3 5 1 12 -5 16 -12 7
-99 -64 -100 -82 0 -8 12 -5 35 8 19 11 39 18 45 14 6 -4 31 3 55 15 24 12 49
19 55 15 6 -3 36 7 67 24 31 17 64 31 73 31 9 0 20 4 25 9 17 14 146 81 159
81 6 0 58 20 115 45 57 26 111 43 121 40 9 -3 46 8 81 25 74 35 94 38 84 12
-37 -89 -43 -148 -20 -213 20 -55 58 -96 112 -121 l42 -18 -19 -43 c-23 -50
-26 -143 -6 -191 33 -80 122 -145 198 -146 94 0 248 88 309 177 63 92 129 257
129 324 0 16 4 29 10 29 11 0 24 -45 16 -58 -9 -15 25 -112 39 -112 8 0 17
-15 21 -37 18 -105 50 -190 88 -231 56 -63 162 -80 243 -41 68 33 155 136 212
253 155 312 83 546 -168 546 -51 0 -59 3 -69 24 -6 13 -24 39 -42 59 -37 42
-31 48 55 53 35 3 85 11 111 19 26 8 52 11 57 8 5 -3 30 -7 56 -9 25 -2 64 -6
87 -10 30 -4 43 -2 53 10 8 9 26 16 41 16 19 0 36 9 49 27 12 14 24 23 27 20
3 -3 -12 -27 -34 -54 -140 -168 -170 -413 -59 -482 45 -28 128 -53 141 -42 6
4 26 11 44 14 63 12 150 89 183 161 9 19 20 26 40 26 34 0 44 -17 53 -85 19
-138 77 -265 135 -297 23 -12 19 -13 -45 -19 -55 -5 -71 -3 -78 8 -7 12 -22
14 -82 8 -66 -6 -74 -5 -74 11 0 15 -7 16 -62 10 -35 -3 -96 -11 -136 -18 -60
-10 -75 -10 -82 1 -11 19 -154 6 -172 -16 -12 -14 -7 -15 43 -9 48 6 57 5 63
-10 5 -14 16 -16 66 -11 38 4 61 3 66 -4 4 -7 30 -8 75 -4 52 5 69 4 69 -5 0
-10 22 -12 95 -7 78 5 95 4 95 -8 0 -11 29 -13 163 -13 89 1 174 -2 188 -6 32
-9 63 18 31 28 -16 5 -99 12 -174 15 -10 1 -18 7 -18 15 0 11 7 12 33 4 159
-49 407 252 424 513 5 78 3 92 -20 143 -20 43 -23 56 -12 56 8 0 23 10 35 22
16 17 23 19 32 10 7 -7 31 -12 53 -12 34 0 44 5 55 24 9 18 23 26 48 28 36 3
47 14 56 59 4 18 14 29 31 33 30 8 43 47 27 88 -13 35 8 52 45 35 27 -12 91 5
129 36 13 10 24 14 24 8 0 -11 145 -9 180 2 8 3 29 8 45 12 l30 6 -42 -43
c-22 -24 -53 -67 -68 -95 -15 -29 -31 -53 -36 -53 -4 0 -30 12 -56 26 -41 22
-58 25 -115 22 -85 -5 -141 -40 -178 -113 -22 -44 -25 -62 -25 -160 0 -122 21
-208 77 -319 56 -111 135 -184 218 -201 69 -14 67 -26 -2 -20 -55 4 -68 3 -68
-8 0 -17 35 -25 138 -34 63 -5 72 -4 72 11 0 12 6 15 23 11 46 -12 209 -21
214 -12 3 5 36 6 74 3 50 -5 69 -4 69 4 0 9 24 11 80 8 60 -2 80 0 80 10 0 9
14 11 56 6 46 -6 56 -4 52 7 -6 17 -29 23 -175 44 -111 16 -133 15 -133 -8 0
-9 -36 -12 -131 -12 -72 0 -133 -3 -136 -8 -2 -4 -23 -7 -46 -7 l-42 1 37 19
c50 27 95 85 113 146 8 29 22 54 30 57 27 11 88 114 83 142 -3 14 -1 28 4 31
5 4 27 43 49 89 22 45 49 91 61 101 21 19 21 19 14 -1 -26 -68 -32 -203 -15
-287 43 -202 193 -299 345 -223 85 42 133 126 141 247 3 43 11 82 17 86 6 5
32 16 58 26 66 24 120 88 142 166 16 56 16 67 2 143 -9 45 -23 103 -31 130 -8
26 -13 48 -12 48 1 1 20 3 42 4 22 1 65 5 96 9 l56 7 0 -30 c0 -17 7 -39 16
-49 10 -10 17 -35 17 -55 0 -39 27 -77 55 -77 25 0 17 -24 -20 -53 -43 -34
-65 -103 -65 -204 0 -81 21 -156 71 -256 37 -73 142 -183 184 -193 17 -4 37
-14 46 -23 14 -15 8 -16 -70 -16 -70 0 -86 -3 -86 -15 0 -8 5 -14 11 -13 6 1
40 -2 75 -7 114 -16 184 -16 184 0 0 8 -19 19 -45 26 -38 10 -19 11 118 6 121
-4 162 -2 162 7 0 6 -10 16 -22 21 -16 6 14 9 96 9 101 1 117 3 112 16 -4 12
5 15 48 15 36 0 56 4 59 14 4 10 19 12 56 8 41 -4 51 -2 51 10 0 18 -41 28
-116 28 -43 0 -54 -3 -54 -16 0 -14 -15 -16 -120 -13 -89 3 -121 1 -125 -8 -3
-9 -29 -13 -80 -13 -65 0 -75 -2 -75 -18 0 -14 -7 -17 -40 -14 l-40 4 27 21
c66 51 98 123 117 265 10 74 24 130 41 166 24 51 27 54 53 47 15 -4 39 -4 54
0 16 4 30 4 32 0 3 -4 -4 -36 -14 -70 -39 -124 -19 -251 45 -291 63 -39 172
-19 238 44 33 32 73 109 82 157 6 32 9 34 46 35 50 2 100 40 129 99 17 35 21
59 18 110 -1 36 -1 64 2 62 67 -41 126 -42 157 -3 10 12 33 28 51 35 17 7 33
17 33 22 1 5 2 15 3 22 1 6 -1 21 -4 32 -5 15 0 23 24 35 21 10 32 24 34 42 2
18 12 30 33 38 16 7 32 23 35 35 4 16 11 21 25 18 10 -3 37 4 58 16 24 12 43
16 46 11 9 -15 51 -12 93 6 21 10 59 16 87 15 28 0 77 8 110 18 54 18 61 18
72 4 13 -17 11 -17 153 12 41 8 123 18 182 21 86 6 108 10 108 22 0 13 -13 14
-82 8 -46 -3 -116 -11 -156 -18 -57 -8 -78 -8 -96 2 -19 10 -38 9 -101 -4 -42
-9 -81 -18 -86 -22 -5 -3 -16 2 -24 10 -14 14 -26 12 -113 -19 -53 -19 -100
-35 -105 -35 -4 0 -5 11 -1 25 8 31 -3 32 -45 1 -52 -38 -88 -51 -106 -36 -8
7 -15 19 -15 26 0 8 -4 14 -10 14 -5 0 -10 9 -10 20 0 25 -52 52 -83 45 -18
-5 -32 2 -58 26 -66 62 -199 109 -310 109 -24 0 -39 5 -43 16 -11 29 -6 34 33
34 22 0 43 5 46 10 3 6 15 10 26 10 10 0 29 10 41 22 13 13 34 24 48 26 40 5
226 100 280 143 27 21 59 39 71 39 12 0 37 16 55 35 30 32 38 35 68 30 57 -11
76 0 76 45 0 21 5 40 10 42 6 2 13 20 16 40 6 31 3 41 -18 59 -24 21 -24 24
-10 49 22 37 9 79 -28 92 -29 9 -29 10 -13 34 15 24 15 27 -4 52 -38 51 -83
52 -154 0 -14 -9 -20 -8 -34 5 -34 34 -94 12 -95 -35 0 -24 -9 -23 -32 5 -35
39 -45 70 -51 150 l-5 77 33 14 c18 8 51 31 74 51 34 31 44 35 56 25 21 -17
19 -69 -5 -107 -10 -18 -15 -35 -10 -38 13 -8 50 60 52 97 0 18 -7 48 -16 66
-15 29 -15 38 -2 90 8 31 17 78 20 103 5 36 12 49 31 57 32 15 34 63 5 92 -11
11 -20 25 -20 30 0 19 -52 60 -77 60 -13 0 -36 9 -51 20 -35 26 -82 39 -107
30 -13 -5 -34 0 -58 12 -31 15 -45 17 -68 9 -17 -6 -31 -6 -34 -1 -3 5 -23 15
-44 21 -31 9 -43 8 -69 -5 -28 -14 -34 -14 -68 0 -23 10 -51 14 -73 10 -53 -9
-53 -9 -96 7 -60 22 -134 27 -195 14z m120 -42 c-8 -10 -31 -15 -66 -15 -41 0
-58 -5 -71 -19 -9 -11 -22 -17 -29 -15 -50 15 -49 14 -28 28 34 24 78 34 143
35 55 1 62 -1 51 -14z m240 -20 c46 -26 49 -27 65 -11 22 21 73 20 110 -2 23
-14 36 -16 56 -8 21 8 34 5 65 -13 31 -19 41 -21 60 -11 31 17 76 0 92 -34 11
-22 16 -25 28 -15 30 24 95 -18 75 -49 -5 -9 -18 -7 -48 8 -67 32 -245 78
-347 89 -257 29 -518 -7 -743 -102 l-82 -35 14 29 c20 38 50 52 96 46 29 -4
39 -2 39 9 0 26 47 47 95 42 34 -4 48 -1 61 13 24 27 70 34 99 15 23 -15 25
-15 35 4 14 26 53 35 90 20 24 -10 33 -9 52 4 28 20 55 20 88 1z m-1540 -65
c12 -7 11 -9 -5 -8 -11 0 -49 -4 -84 -10 -36 -7 -75 -9 -88 -7 -13 3 -34 7
-48 10 -14 3 -23 10 -20 15 8 13 225 13 245 0z m1719 -10 c85 -10 248 -55 325
-91 l29 -13 -6 -91 c-3 -50 -12 -108 -20 -128 -15 -34 -18 -36 -51 -30 -20 3
-54 -1 -82 -11 -57 -19 -70 -12 -29 17 88 64 122 117 104 165 -5 12 -20 27
-34 32 -34 13 -85 13 -85 0 0 -5 13 -10 29 -10 51 0 61 -9 61 -51 0 -34 -7
-46 -46 -85 -26 -24 -48 -43 -50 -41 -2 1 3 22 11 45 17 49 9 80 -31 111 -24
19 -38 21 -103 19 -76 -3 -105 -20 -55 -32 18 -5 32 -2 46 11 17 15 23 16 61
3 48 -17 64 -47 53 -101 -11 -61 -14 -62 -97 -46 -247 49 -574 11 -744 -87
-34 -19 -50 -22 -102 -18 -76 5 -136 -20 -186 -79 l-33 -38 -35 28 c-19 16
-47 52 -62 80 l-28 51 33 41 c110 139 434 300 683 340 82 13 277 26 320 22 17
-2 72 -8 124 -13z m-2051 -9 c16 -11 69 -27 126 -37 82 -14 107 -15 152 -5 30
7 58 20 64 29 9 16 9 16 10 -1 0 -9 -5 -26 -12 -37 -7 -10 -9 -22 -5 -26 12
-12 44 25 53 59 l7 32 4 -27 c2 -15 -1 -37 -7 -48 -17 -32 -6 -35 36 -10 34
22 37 22 46 6 37 -66 171 -146 246 -146 46 0 50 -5 26 -32 -15 -16 -15 -18 -1
-24 9 -3 29 3 44 13 50 35 59 35 20 1 -20 -18 -37 -39 -37 -45 0 -16 0 -16 44
2 l36 15 0 -29 c0 -102 107 -272 162 -258 30 8 21 -1 -22 -23 -42 -21 -45 -40
-7 -41 22 0 22 0 -1 -10 -13 -5 -20 -14 -17 -20 16 -25 -115 -109 -150 -95 -7
2 -19 22 -25 43 -28 84 -93 142 -181 160 -16 3 -26 9 -24 14 8 12 -163 158
-220 187 -54 27 -136 52 -174 52 -14 0 -54 12 -90 26 -55 22 -76 26 -133 22
-49 -4 -71 -2 -76 7 -4 7 -24 23 -45 35 -69 41 -177 24 -177 -27 0 -16 -1 -16
-36 2 -39 20 -73 19 -111 -5 -25 -15 -34 -29 -39 -60 l-7 -41 -24 23 c-22 21
-24 28 -18 78 3 30 6 72 7 93 l2 37 15 -25 c22 -36 37 -25 33 25 l-4 43 80 -7
c94 -7 167 6 217 40 42 28 45 29 45 9 0 -21 27 -19 39 3 10 16 10 16 11 0 0
-24 9 -22 50 12 19 17 36 30 38 30 1 0 15 -9 30 -19z m575 -72 c65 -39 87 -62
73 -77 -12 -12 -114 49 -141 84 -34 45 -17 43 68 -7z m-1756 5 c14 -14 23 -27
21 -29 -2 -2 -35 1 -72 7 -69 11 -69 11 -46 30 31 25 66 23 97 -8z m-161 2
c23 -17 14 -22 -58 -29 -36 -3 -48 -1 -48 9 0 31 71 45 106 20z m-133 -25 c4
-4 -45 -22 -108 -40 -64 -18 -119 -31 -122 -28 -2 3 0 14 6 25 13 24 55 36 81
22 26 -14 40 -13 40 3 0 30 77 43 103 18z m427 -16 c28 -29 25 -30 -47 -9 -39
11 -52 19 -42 25 26 16 65 9 89 -16z m3504 19 c20 -8 21 -44 1 -44 -8 0 -15 4
-15 9 0 5 -3 16 -6 25 -7 18 -4 19 20 10z m-1269 -14 c4 -7 -51 -43 -107 -68
-18 -8 -6 31 17 53 24 25 78 34 90 15z m-2349 -26 c195 -39 346 -129 433 -258
23 -35 26 -49 26 -120 -1 -104 -36 -195 -106 -269 -58 -63 -72 -57 -74 35 -3
115 -45 205 -125 269 -38 31 -40 34 -24 46 59 43 143 30 162 -25 6 -17 7 -34
4 -38 -4 -3 0 -5 8 -2 24 8 14 59 -18 91 -39 39 -84 42 -140 11 -24 -13 -42
-20 -40 -16 27 62 39 105 34 126 -6 25 -47 45 -78 38 -26 -5 -22 -22 5 -22 45
0 58 -36 36 -99 -13 -37 -26 -41 -26 -6 0 14 -8 37 -18 51 -16 24 -21 26 -71
22 -39 -3 -61 -11 -79 -28 -32 -30 -24 -39 11 -11 34 27 94 28 118 2 9 -10 20
-35 23 -56 6 -37 6 -37 -18 -24 -17 10 -64 13 -164 13 -122 -1 -151 -4 -229
-28 -106 -32 -193 -73 -261 -123 -42 -31 -56 -36 -96 -34 -105 5 -187 -62
-234 -191 l-22 -60 -30 26 c-46 39 -76 106 -67 153 16 90 119 218 268 329 122
92 360 189 506 207 84 10 214 6 286 -9z m256 -21 c10 -9 20 -24 23 -34 5 -13
15 -18 40 -17 38 1 60 -13 68 -42 9 -36 -11 -31 -93 24 -44 30 -89 58 -100 61
-21 7 -25 17 -13 29 10 10 55 -2 75 -21z m-858 -31 c6 -11 -91 -58 -100 -49
-4 4 1 18 10 32 12 19 25 25 51 25 18 0 36 -4 39 -8z m2826 1 c0 -5 -24 -24
-52 -43 -29 -19 -69 -52 -90 -73 l-38 -39 0 31 c0 24 5 32 24 37 16 4 23 11
19 20 -4 10 3 14 21 14 16 0 26 6 26 14 0 8 10 22 22 30 23 16 68 22 68 9z
m-1233 -54 c26 -10 45 -42 43 -72 -3 -38 -1 -38 43 -12 51 29 111 32 172 9 22
-9 48 -17 57 -18 10 -1 21 -5 24 -9 4 -4 17 -7 28 -7 38 -1 158 -49 214 -86
31 -20 78 -57 104 -82 l49 -46 -29 -15 c-65 -36 -112 -89 -112 -127 0 -12 -5
-26 -11 -30 -20 -12 -41 23 -41 65 1 43 -7 51 -28 26 -29 -34 -86 -10 -96 40
-7 39 6 62 43 76 24 9 32 29 11 29 -22 0 -48 33 -48 61 0 30 -15 47 -23 26
-16 -43 -147 -60 -241 -32 -68 21 -80 20 -73 -7 9 -33 -28 -68 -70 -68 -38 0
-67 12 -99 42 -22 19 -22 19 -43 -15 -26 -43 -74 -54 -103 -25 -19 19 -20 19
-43 -6 -39 -42 -105 -29 -124 24 -10 29 -8 35 18 61 19 19 40 29 59 29 40 0
46 10 21 36 -28 30 -15 73 30 96 37 19 77 10 107 -23 23 -26 37 -24 31 4 -8
28 1 42 38 61 28 15 41 14 92 -5z m-1725 -22 c-6 -7 -29 -23 -51 -35 -40 -23
-41 -23 -41 -3 0 26 36 51 73 51 23 0 27 -3 19 -13z m-932 -61 c0 -14 -5 -28
-11 -32 -22 -13 8 -26 31 -14 15 8 20 8 16 1 -12 -18 4 -34 20 -20 12 10 14 3
16 -40 0 -28 1 -57 2 -63 1 -9 -21 -15 -63 -20 -59 -7 -369 -87 -416 -108 -11
-5 -56 -21 -100 -35 -44 -15 -116 -44 -161 -65 -118 -57 -311 -188 -374 -256
-31 -32 -79 -70 -110 -86 -30 -15 -86 -52 -124 -83 -38 -30 -71 -55 -75 -55
-3 0 -21 22 -38 48 -27 39 -30 48 -17 52 20 7 4 22 -41 38 l-30 11 35 0 c55
-1 57 0 25 26 -16 13 -27 26 -25 28 3 2 30 15 60 30 102 49 178 131 206 222
l12 40 12 -27 c18 -39 30 -25 31 35 l1 52 12 -40 c8 -24 20 -41 30 -43 15 -3
16 -1 7 16 -6 12 -11 36 -11 56 0 30 4 35 28 40 15 3 43 5 62 5 98 -1 219 52
301 134 58 57 63 59 75 42 8 -10 14 -25 14 -32 0 -7 4 -13 10 -13 10 0 18 37
23 105 3 36 4 34 11 -22 5 -35 12 -63 16 -63 4 0 18 30 32 68 20 56 29 67 49
70 15 2 32 -5 44 -18 24 -27 14 -35 -26 -21 -22 8 -36 8 -43 1 -23 -23 16 -34
133 -38 101 -4 130 -1 188 17 38 11 87 34 109 50 48 37 54 37 54 7z m2125 -11
c26 -25 30 -42 17 -61 -4 -6 -20 9 -39 38 -35 53 -22 67 22 23z m-2635 -4 c0
-11 -4 -23 -10 -26 -6 -4 -10 5 -10 19 0 14 5 26 10 26 6 0 10 -9 10 -19z
m-80 -26 c0 -26 0 -26 -24 -8 -27 20 -25 33 5 33 14 0 19 -7 19 -25z m1364
-17 c-19 -17 -37 -28 -40 -25 -10 10 17 48 39 56 38 15 38 1 1 -31z m3686 0
c-44 -22 -94 -61 -154 -120 -49 -49 -91 -88 -93 -88 -1 0 -3 8 -3 18 0 26 91
116 168 166 76 49 87 54 122 55 17 1 4 -9 -40 -31z m-5146 -5 c5 -24 -1 -34
-41 -70 -63 -57 -147 -100 -233 -119 -66 -15 -73 -15 -88 0 -25 25 -7 44 99
103 79 45 228 111 250 113 4 0 9 -12 13 -27z m5684 1 c8 -2 10 -9 5 -16 -4 -7
-6 -20 -5 -29 2 -14 -4 -16 -41 -12 -36 4 -48 1 -75 -22 -40 -34 -34 -45 11
-20 70 37 117 -6 125 -114 4 -70 -23 -178 -55 -213 -15 -16 -15 -18 0 -18 17
0 62 50 72 80 6 18 10 16 41 -21 49 -59 57 -78 55 -127 -2 -57 -29 -107 -88
-163 -99 -94 -224 -156 -344 -172 -134 -18 -308 21 -469 104 -81 42 -183 127
-163 135 29 13 63 47 63 64 0 19 -1 19 -32 1 -54 -31 -110 -35 -161 -13 -54
24 -89 69 -113 144 l-18 58 42 38 c23 22 42 37 42 35 0 -2 14 4 30 12 39 20
30 35 -22 35 -41 0 -41 0 -23 20 10 11 23 30 29 42 6 12 31 37 54 55 78 59
146 41 212 -58 l40 -60 -21 -40 c-37 -74 -20 -78 51 -13 69 64 144 124 154
124 3 0 6 -27 6 -61 0 -70 23 -150 52 -175 17 -17 22 -17 46 -4 40 22 72 93
72 159 0 83 -42 115 -99 75 -23 -16 -23 -16 -16 7 16 54 59 112 103 140 59 37
76 37 119 -6 19 -19 37 -35 39 -35 2 0 4 11 4 25 0 27 7 30 105 44 55 7 142 5
173 -5z m172 -8 c0 -23 -87 -96 -115 -96 -23 0 -25 4 -25 45 0 53 15 63 93 64
33 1 47 -3 47 -13z m-2990 -90 c0 -36 -20 -76 -20 -41 0 11 -3 38 -7 60 -6 37
-5 39 10 26 10 -7 17 -28 17 -45z m-1496 22 c-12 -22 -47 -58 -56 -58 -15 0
-8 23 14 47 23 24 54 32 42 11z m2237 -25 c55 -3 94 -1 107 6 17 9 23 8 35 -9
13 -18 12 -25 -4 -57 -35 -69 7 -149 76 -145 29 2 35 -1 41 -22 16 -67 90 -71
109 -6 6 19 24 48 40 65 113 119 296 -40 249 -217 -41 -158 -216 -228 -293
-119 -13 17 -27 29 -32 26 -19 -12 -8 -49 26 -80 l34 -33 -57 -40 c-67 -46
-204 -117 -282 -144 -79 -28 -219 -34 -300 -14 -233 58 -411 246 -361 379 11
27 86 102 104 102 6 0 15 -20 19 -45 9 -51 37 -120 50 -120 11 0 11 -1 -7 67
-26 97 7 215 76 278 42 38 65 40 102 7 9 -8 20 -12 25 -8 11 12 -56 66 -82 66
-13 0 -40 -11 -60 -25 -43 -29 -46 -30 -46 -11 0 8 9 17 20 21 11 3 28 17 38
30 19 23 19 23 48 6 73 -44 155 -30 176 31 9 26 14 29 37 23 14 -3 65 -9 112
-12z m-1169 -62 l27 -49 -25 -23 c-29 -27 -23 -37 11 -19 42 22 75 3 107 -60
43 -86 32 -217 -23 -276 -12 -13 -19 -27 -15 -31 11 -11 64 54 83 100 l16 39
29 -45 c39 -60 45 -106 23 -163 -57 -149 -281 -273 -495 -273 -107 0 -188 20
-293 73 -94 47 -223 152 -200 162 26 11 63 46 63 60 0 13 -4 13 -27 1 -46 -24
-128 -40 -158 -33 -40 10 -90 66 -109 122 -34 100 -12 198 60 264 50 46 80 60
131 60 45 0 98 -50 108 -103 9 -46 35 -51 35 -7 0 25 4 30 24 30 13 0 44 3 70
6 l46 7 0 -47 c0 -44 22 -116 35 -116 4 0 3 24 0 54 -13 98 42 202 136 262 60
37 111 28 143 -27 17 -29 18 -29 34 -9 14 17 117 86 132 89 3 0 17 -21 32 -48z
m-1670 -20 c-8 -21 -15 -23 -111 -27 -143 -6 -160 8 -40 34 155 35 167 34 151
-7z m510 -32 c-15 -39 -17 -40 -26 -19 -8 18 -6 26 13 41 13 11 25 19 26 19 2
0 -4 -19 -13 -41z m-522 -34 c0 -18 -31 -73 -52 -93 l-25 -22 -47 50 c-26 28
-44 55 -41 60 6 10 165 15 165 5z m-332 -22 c-19 -23 -40 -83 -28 -83 5 0 15
12 22 27 7 15 25 34 40 41 41 19 106 -14 159 -81 56 -70 71 -108 72 -188 1
-37 4 -66 7 -64 11 7 33 113 27 129 -9 22 -3 21 65 -16 114 -61 142 -157 85
-295 -106 -258 -383 -453 -644 -453 -104 0 -341 41 -387 67 -15 8 -13 15 18
62 34 50 46 91 28 91 -5 0 -30 -29 -57 -64 -35 -47 -58 -67 -86 -76 -81 -27
-168 28 -221 138 -41 87 -43 163 -5 246 42 92 119 119 215 76 33 -15 42 -16
42 -5 0 18 -43 51 -87 66 l-35 11 53 55 c56 57 225 175 269 188 24 7 24 7 8
-11 -44 -51 -70 -182 -49 -246 28 -86 107 -169 146 -154 9 3 -2 21 -35 53 -33
33 -52 62 -60 93 -27 98 -3 208 56 259 45 40 78 48 120 27 39 -18 54 -20 54
-7 0 5 -23 20 -50 33 l-50 24 72 24 c90 29 172 48 217 49 32 1 33 0 19 -16z
m842 -60 c-1 -35 -2 -37 -15 -19 -10 13 -11 24 -4 37 14 28 19 23 19 -18z
m4820 -8 c16 -19 3 -35 -56 -70 -28 -17 -44 -33 -44 -45 0 -24 3 -24 57 -4 54
21 93 13 93 -20 0 -21 -6 -25 -42 -29 -34 -3 -47 0 -60 14 -22 26 -30 10 -16
-37 6 -24 8 -72 4 -124 -8 -98 -17 -110 -82 -110 -33 0 -44 -4 -49 -19 -7 -22
-105 -87 -207 -138 -37 -18 -69 -33 -70 -33 -2 0 -3 19 -3 43 0 23 -3 51 -7
62 -7 17 1 25 49 50 69 36 149 115 187 184 25 47 28 62 27 144 0 103 8 129 36
111 19 -12 22 -53 8 -106 -6 -22 -4 -28 9 -28 18 0 46 49 46 81 0 26 61 89 88
89 11 0 25 -7 32 -15z m-1612 -112 c36 -97 117 -172 188 -173 11 0 35 -16 53
-36 l32 -37 -36 -32 c-34 -32 -40 -50 -36 -107 2 -24 -5 -31 -68 -62 -38 -20
-95 -56 -125 -81 -62 -50 -64 -51 -80 -32 -6 8 -50 44 -97 81 -64 49 -88 75
-92 96 -4 20 -13 30 -29 32 -15 2 -25 13 -32 36 -7 25 -14 32 -35 32 -14 0
-33 4 -40 9 -12 8 -8 11 15 16 112 24 201 122 222 245 l8 45 52 6 c30 4 56 10
59 13 14 13 21 4 41 -51z m1672 -128 c46 -42 4 -67 -58 -36 -22 11 -42 30 -45
42 -5 20 -3 21 39 16 25 -2 54 -13 64 -22z m-56 -76 c37 -21 50 -59 21 -59
-21 0 -75 28 -75 39 0 12 11 41 15 41 2 0 20 -9 39 -21z m-1226 -118 c39 -21
102 -51 141 -66 60 -24 75 -35 95 -69 13 -23 36 -52 50 -65 l26 -24 38 41 37
40 23 -39 c29 -51 48 -48 87 12 27 42 36 47 93 61 58 14 62 14 62 -2 0 -9 -16
-31 -35 -49 -20 -18 -33 -36 -30 -41 10 -16 43 -11 54 7 11 20 24 13 16 -8 -7
-19 -62 -49 -90 -49 -18 0 -25 7 -30 29 -7 34 -33 48 -42 24 -3 -9 -2 -48 4
-87 6 -39 8 -74 6 -79 -9 -16 -109 -59 -181 -78 -120 -30 -279 -13 -357 38
l-40 27 37 8 c21 4 48 4 62 -1 48 -19 126 14 169 71 26 34 36 128 15 128 -9 0
-18 -13 -22 -32 -8 -40 -49 -94 -86 -113 -39 -20 -80 -20 -80 1 0 12 6 15 24
10 35 -9 41 10 7 22 -15 5 -31 20 -34 31 -5 20 -3 21 42 15 30 -4 57 -2 70 6
39 20 18 35 -58 40 -65 4 -74 8 -88 32 -16 25 -16 27 16 63 35 41 36 58 2 63
-15 3 -33 -8 -55 -32 -34 -36 -46 -37 -46 -5 0 27 -21 34 -27 10 -8 -33 -23
-25 -23 13 0 26 7 41 31 60 17 14 34 26 38 26 5 0 40 -17 79 -39z m-798 -4
l35 -15 -40 -17 c-22 -9 -60 -31 -85 -48 -25 -17 -67 -46 -94 -64 -55 -38 -78
-40 -135 -15 l-41 19 102 51 c57 27 126 66 153 85 28 19 54 31 60 27 6 -5 26
-15 45 -23z m-4599 6 c-6 -10 -25 -35 -43 -57 -28 -32 -36 -36 -45 -24 -10 11
-2 22 40 56 59 47 62 49 48 25z m2214 -44 c25 -23 33 -35 25 -43 -7 -7 -15 -3
-26 13 -9 12 -30 31 -48 42 -28 17 -29 19 -9 19 12 0 38 -14 58 -31z m-121
-28 c10 -11 15 -24 12 -30 -4 -5 12 -34 34 -63 22 -29 40 -60 40 -70 0 -9 15
-25 34 -36 40 -24 76 -93 76 -149 0 -42 -25 -84 -61 -103 -17 -9 -18 -8 -13
19 8 38 -12 50 -28 17 -13 -30 -32 -35 -23 -7 8 25 -15 39 -27 17 -17 -30 -51
-56 -75 -56 -22 0 -22 1 9 29 27 24 31 32 20 43 -11 11 -16 9 -30 -9 -19 -24
-68 -47 -83 -37 -20 12 -7 35 29 51 20 10 39 19 41 20 2 1 -4 14 -13 27 -9 14
-16 41 -16 61 0 30 -3 35 -24 35 -31 0 -91 67 -107 119 -17 58 -2 86 63 116
65 30 118 32 142 6z m75 -15 c36 -37 76 -146 53 -146 -4 0 -13 19 -20 42 -8
24 -29 64 -48 90 -39 56 -32 63 15 14z m2515 25 c4 -5 -17 -26 -45 -47 -38
-27 -58 -52 -74 -88 -12 -28 -27 -62 -33 -76 -9 -22 -11 -22 -11 -5 -1 13 -18
31 -51 51 l-50 31 64 46 c69 49 116 75 156 88 35 10 38 10 44 0z m701 -20 c-3
-6 -11 -11 -17 -11 -6 0 -6 6 2 15 14 17 26 13 15 -4z m721 -38 c8 -41 -5
-105 -23 -110 -9 -3 -9 5 -1 33 5 21 8 55 5 76 -7 49 10 50 19 1z m-3810 5 c4
-7 8 -22 9 -34 1 -26 32 -64 51 -64 34 0 22 -50 -17 -70 -18 -10 -19 -9 -13
14 5 21 -1 33 -28 60 -43 43 -61 79 -45 95 14 14 34 14 43 -1z m2456 -41 c111
-83 157 -122 158 -134 0 -7 17 -15 38 -18 66 -11 104 -29 130 -63 l25 -32 -33
7 -33 6 26 -35 c15 -19 29 -50 32 -69 l6 -34 -22 43 c-12 23 -27 42 -35 42
-17 0 -17 -5 -2 -33 14 -27 28 -87 19 -87 -3 0 -14 18 -23 40 -15 36 -41 60
-53 48 -2 -2 8 -27 22 -56 17 -34 23 -58 17 -69 -7 -16 -8 -16 -11 4 -3 13
-15 31 -29 42 -13 10 -24 25 -24 32 0 8 -30 40 -67 72 -67 59 -84 65 -134 43
-11 -5 -42 13 -97 53 -86 64 -97 84 -71 134 12 23 89 107 99 107 3 0 30 -20
62 -43z m1006 27 c6 -5 -32 -53 -42 -54 -9 0 -29 22 -47 53 -10 17 -7 18 38
11 26 -3 50 -8 51 -10z m-457 -7 c35 -27 89 -110 89 -137 0 -38 -9 -60 -26
-60 -10 0 -14 13 -14 40 0 50 -23 106 -57 143 -27 27 -22 37 8 14z m589 5 c0
-4 -8 -20 -19 -35 -14 -21 -20 -25 -28 -15 -17 22 -22 47 -11 50 21 7 58 8 58
0z m-2072 -49 c19 -28 19 -28 -3 -76 -20 -42 -24 -46 -30 -28 -3 12 -28 43
-54 70 -26 26 -39 46 -30 44 10 -3 27 5 38 16 25 25 48 17 79 -26z m-1447 18
c18 -15 21 -22 13 -31 -9 -9 -17 -7 -33 9 -38 38 -22 56 20 22z m2909 -19 c38
-38 59 -95 46 -127 -6 -18 -152 -115 -172 -115 -8 0 -14 6 -14 14 0 24 -79
115 -105 122 -24 6 -35 24 -15 24 5 0 21 10 35 23 41 36 147 97 168 97 11 0
36 -17 57 -38z m-3592 -28 c107 -63 172 -242 127 -350 -15 -37 -43 -43 -37 -8
11 67 13 135 3 170 -16 62 -64 120 -121 149 -56 29 -96 32 -127 10 -20 -14
-53 -11 -53 5 0 11 33 38 60 49 35 15 98 4 148 -25z m2442 29 c0 -5 -5 -26
-11 -48 -10 -37 -12 -38 -25 -20 -15 20 -19 57 -7 68 9 9 43 9 43 0z m-1140
-28 c0 -40 -28 -97 -68 -137 -50 -52 -60 -47 -17 9 19 25 40 64 46 87 6 23 13
47 15 54 6 22 24 13 24 -13z m1058 13 c-2 -6 -23 -17 -45 -23 -96 -28 -146
-86 -88 -101 25 -6 81 26 113 64 21 27 15 -25 -9 -75 -38 -79 -127 -131 -198
-117 -25 5 -30 10 -25 23 4 9 14 36 22 61 8 25 21 64 29 88 8 24 25 50 38 58
40 26 170 44 163 22z m243 -19 c48 -34 75 -107 71 -191 -2 -33 -22 -36 -99
-13 -64 19 -98 57 -108 120 -3 26 -5 48 -3 51 2 2 23 -21 47 -51 41 -53 71
-70 71 -41 0 30 -22 71 -56 103 -20 18 -32 38 -28 44 10 16 69 4 105 -22z
m-1991 -43 c0 -20 -12 -27 -27 -15 -7 6 -13 26 -13 43 l1 31 19 -24 c11 -13
20 -29 20 -35z m225 41 c56 -15 63 -30 25 -59 -32 -23 -55 -16 -75 23 -28 53
-24 55 50 36z m399 -14 c-6 -26 -41 -93 -49 -93 -14 0 -35 36 -35 59 0 31 13
46 45 54 42 10 46 8 39 -20z m252 -59 l62 -34 46 21 c40 17 50 18 74 7 21 -10
28 -21 30 -50 3 -30 -1 -40 -22 -53 -34 -22 -46 -12 -46 37 0 35 -2 39 -15 28
-8 -7 -15 -18 -15 -25 0 -21 -50 -75 -68 -75 -13 0 -17 -10 -17 -44 0 -53 -9
-65 -33 -43 -10 10 -24 17 -30 17 -19 0 -104 30 -174 62 l-68 31 46 49 c46 49
74 101 74 137 0 23 -14 29 156 -65z m1229 76 c-7 -12 112 -136 122 -126 4 3
16 -17 28 -46 12 -29 33 -72 48 -94 l26 -42 -53 -40 c-230 -172 -479 -199
-715 -77 -49 25 -102 58 -117 72 -27 25 -27 26 -9 33 11 4 31 20 44 34 20 21
34 26 75 26 95 1 181 63 207 150 13 43 13 43 46 34 16 -4 23 -16 28 -45 14
-80 79 -122 209 -135 50 -5 64 -3 75 10 11 13 10 17 -11 25 -20 8 -24 16 -26
72 -2 35 -10 78 -18 97 -18 44 -18 50 4 55 30 8 43 7 37 -3z m-687 -32 c32
-34 62 -94 62 -126 0 -35 -176 -106 -205 -82 -9 8 -14 6 -19 -6 -3 -9 -3 -20
0 -25 9 -14 -14 -75 -36 -94 -31 -28 -35 -9 -6 25 31 38 33 59 5 94 -26 33
-42 33 -68 -1 -62 -85 -77 -102 -89 -103 -10 0 -12 8 -7 30 12 53 -21 34 -44
-25 -10 -28 -11 -27 -6 18 3 35 1 47 -9 47 -17 0 -26 -22 -26 -66 0 -35 -13
-46 -24 -18 -10 27 -7 74 8 103 19 36 42 55 51 41 9 -14 66 -12 86 3 23 17 39
52 39 81 0 22 5 26 28 26 15 0 33 5 39 11 11 11 171 97 184 98 3 1 19 -14 37
-31z m1779 26 c-3 -3 -12 -4 -19 -1 -8 3 -5 6 6 6 11 1 17 -2 13 -5z m-3066
-89 c-29 -38 -27 -69 8 -94 35 -25 83 -27 106 -4 26 25 36 62 25 83 -13 24
-13 30 0 30 6 0 15 -11 20 -25 5 -14 20 -27 35 -31 29 -7 29 -10 10 -44 -20
-35 -18 -60 7 -87 l21 -23 -24 -8 c-19 -8 -28 -4 -50 19 -22 24 -35 29 -72 29
-47 0 -97 -29 -97 -56 0 -15 -32 -18 -63 -5 -16 6 -16 9 8 31 14 13 25 29 25
36 0 25 -23 64 -41 69 -10 3 -21 15 -25 27 -5 16 3 29 39 60 25 21 49 49 53
61 7 21 8 20 22 -10 14 -29 13 -33 -7 -58z m256 69 l22 -6 -19 -38 c-11 -21
-25 -42 -31 -46 -17 -10 -39 18 -46 59 -5 35 -4 37 23 37 16 0 39 -3 51 -6z
m123 -27 c0 -23 8 -41 25 -57 36 -34 15 -48 -27 -19 -18 13 -37 30 -41 37 -4
6 -17 12 -27 12 -23 0 -23 0 -10 34 8 21 16 26 45 26 33 0 35 -2 35 -33z
m-1283 -72 c92 -106 190 -226 222 -273 l24 -34 -64 -64 c-35 -35 -68 -64 -74
-64 -6 0 -16 10 -24 23 -19 30 -119 158 -219 279 l-83 101 63 64 c34 35 66 62
70 61 4 -2 42 -44 85 -93z m2473 86 c0 -5 -14 -14 -30 -20 -21 -7 -29 -7 -24
0 5 8 33 24 52 28 1 1 2 -3 2 -8z m-2382 -22 c1 -9 -6 -27 -17 -40 l-20 -24
-27 27 c-24 23 -26 29 -14 43 17 21 74 16 78 -6z m66 -32 c19 -28 12 -57 -21
-81 -23 -17 -26 -17 -41 -2 -14 14 -14 19 -4 34 7 9 18 29 25 45 14 33 22 34
41 4z m846 -12 c14 9 20 -25 8 -50 -8 -19 -19 -25 -43 -25 -37 0 -55 15 -55
47 0 29 27 44 58 32 13 -5 27 -7 32 -4z m190 -5 c0 -11 -7 -20 -15 -20 -18 0
-19 12 -3 28 16 16 18 15 18 -8z m14 -47 c19 -71 18 -81 -12 -97 -26 -13 -31
-13 -51 0 -29 21 -26 50 8 85 34 33 48 36 55 12z m66 2 c0 -8 -2 -15 -4 -15
-2 0 -6 7 -10 15 -3 8 -1 15 4 15 6 0 10 -7 10 -15z m-1050 -42 c0 -21 -29
-73 -41 -73 -6 0 -19 10 -29 22 -18 22 -17 23 13 59 28 32 34 34 45 21 6 -9
12 -22 12 -29z m228 15 c18 -18 15 -26 -18 -43 -38 -20 -37 -20 -32 20 4 37
26 47 50 23z m2694 -31 c35 -28 37 -32 31 -76 -6 -59 19 -90 75 -92 l37 -1
-34 -11 c-23 -7 -38 -7 -50 0 -13 8 -26 7 -50 -3 -76 -32 -97 -4 -30 40 36 24
40 31 34 54 -3 15 -15 36 -25 47 -10 11 -25 35 -35 54 -19 37 -13 36 47 -12z
m702 -13 l53 -28 -46 -34 c-63 -48 -144 -121 -155 -139 -5 -9 -3 -19 4 -26 10
-9 14 -9 17 1 6 17 75 81 148 137 40 32 67 45 89 45 l32 0 -58 -60 c-55 -56
-122 -149 -114 -157 2 -2 52 43 111 101 l107 106 63 0 63 0 12 -85 c7 -47 10
-103 8 -125 -6 -61 9 -48 17 15 6 51 0 145 -12 189 -11 39 18 3 52 -65 20 -39
42 -69 50 -69 22 0 19 13 -17 83 -18 34 -34 65 -36 69 -4 9 64 38 90 38 12 0
46 -27 79 -61 32 -34 59 -58 59 -54 0 12 -50 78 -79 103 l-26 24 25 -7 c43
-11 109 -47 149 -82 41 -35 61 -41 61 -20 0 17 -102 92 -157 114 -23 10 -43
22 -43 27 0 5 40 6 94 3 98 -7 163 -26 241 -71 41 -25 44 -29 39 -59 -16 -93
-58 -174 -109 -213 -37 -28 -40 -28 -137 -18 -102 10 -131 1 -202 -65 -81 -75
-147 -114 -195 -114 -44 0 -102 36 -166 102 -60 62 -115 70 -210 31 -55 -23
-92 -27 -145 -19 -74 12 -114 51 -125 123 -6 32 -3 36 34 58 30 17 49 39 72
85 26 51 41 68 83 92 28 16 67 41 86 54 25 18 36 21 38 12 2 -7 27 -26 56 -41z
m-4133 36 c18 -10 18 -12 -7 -50 -15 -22 -33 -40 -41 -40 -13 0 -78 60 -71 65
56 38 82 44 119 25z m662 4 c8 -8 -12 -61 -29 -75 -12 -10 -14 -4 -14 35 0 38
3 46 18 46 10 0 21 -3 25 -6z m451 -36 c3 -15 -1 -30 -14 -42 -26 -26 -32 -18
-18 27 13 42 23 47 32 15z m-957 -100 c176 -222 213 -275 200 -286 -7 -6 -38
-21 -69 -35 l-57 -25 -62 106 c-34 59 -84 139 -111 179 -26 40 -48 75 -48 79
0 6 53 94 56 94 1 0 41 -51 91 -112z m3423 105 c-1 -10 -50 -47 -50 -38 0 17
22 45 35 45 8 0 15 -3 15 -7z m-3713 -34 l28 -11 -50 -13 c-64 -17 -96 -3 -45
19 19 8 36 15 37 16 1 0 14 -5 30 -11z m1735 -13 c22 6 22 6 6 -13 -33 -36
-14 -97 32 -103 54 -8 84 1 116 36 l34 36 53 -18 c74 -24 75 -25 22 -43 -27
-9 -53 -23 -58 -32 -16 -26 1 -67 33 -84 17 -9 30 -20 30 -25 0 -20 -75 -93
-125 -121 -62 -35 -87 -36 -119 -4 -22 22 -31 24 -66 19 -36 -6 -40 -4 -40 14
0 20 -56 72 -78 72 -6 0 -31 -9 -56 -20 -40 -17 -46 -23 -46 -49 0 -20 8 -35
23 -46 26 -18 30 -15 -93 -79 -96 -50 -176 -76 -232 -76 l-38 0 6 44 c4 30 2
46 -6 51 -9 6 -3 13 20 24 51 24 56 40 38 112 l-15 64 33 3 c18 2 44 14 59 28
21 19 26 32 23 62 -3 31 -8 40 -39 55 -28 13 -43 15 -63 7 -22 -8 -26 -7 -26
9 0 27 9 30 46 15 18 -8 55 -19 82 -24 l48 -11 -29 -85 c-15 -47 -26 -98 -24
-112 l4 -27 13 30 c11 27 17 30 47 27 24 -3 37 -11 43 -26 5 -11 9 -16 9 -9 1
7 15 26 31 43 35 36 38 65 10 95 -30 32 -17 61 35 74 55 14 55 14 55 -4 0 -8
-4 -15 -10 -15 -5 0 -10 -16 -10 -35 0 -29 6 -39 33 -55 39 -24 87 -27 87 -4
0 10 -7 14 -17 11 -48 -10 -93 44 -60 72 16 13 58 -28 107 -104 27 -42 31 -45
25 -20 -4 17 -7 48 -8 70 -2 37 -5 42 -50 64 -26 13 -46 25 -43 28 6 6 114
-52 149 -79 20 -16 30 -19 38 -11 13 13 -59 71 -123 100 -42 19 -47 29 -19 38
10 3 26 14 36 25 13 15 21 17 31 9 7 -6 23 -7 36 -3z m862 -32 c-25 -32 -26
-35 -10 -59 9 -13 16 -26 16 -28 0 -5 -83 -27 -101 -27 -9 0 -9 3 0 14 19 23
-5 29 -40 10 l-32 -16 21 26 c11 15 23 39 27 54 4 22 16 31 63 48 75 27 89 22
56 -22z m1152 38 c8 -5 2 -16 -17 -35 l-29 -28 0 23 c0 22 16 48 30 48 3 0 10
-4 16 -8z m-1347 -20 c12 -22 -3 -42 -30 -42 -25 0 -32 16 -19 40 13 25 36 26
49 2z m-1758 -45 c-16 -16 -26 20 -10 40 13 15 14 14 17 -7 2 -12 -1 -27 -7
-33z m160 27 c-20 -26 -19 -46 6 -75 11 -13 10 -18 -5 -32 -17 -16 -19 -15
-31 18 -7 19 -17 35 -22 35 -20 0 -8 39 19 59 39 30 58 27 33 -5z m657 0 c3
-19 -3 -23 -48 -29 -66 -9 -87 7 -51 36 34 28 95 23 99 -7z m410 7 c28 -18
-29 -71 -76 -71 -39 0 -57 50 -24 69 21 13 82 14 100 2z m1796 -23 c29 -37 27
-45 -6 -27 -26 13 -38 28 -38 47 0 21 18 13 44 -20z m1646 3 c0 -11 -11 -28
-25 -39 -33 -26 -32 -32 5 -32 38 0 52 -27 24 -47 -10 -8 -32 -12 -47 -10 -32
4 -47 -11 -23 -25 24 -13 20 -35 -10 -55 -21 -13 -30 -14 -45 -5 -24 15 -29
15 -29 -1 0 -7 9 -21 21 -30 31 -27 22 -61 -18 -65 -24 -2 -34 -10 -41 -31
-16 -47 -102 -50 -102 -4 0 13 -8 15 -40 10 -29 -4 -42 -1 -48 10 -6 9 -20 13
-37 11 -34 -4 -44 -23 -15 -31 28 -7 36 -34 15 -57 -18 -19 -38 -17 -67 7 -20
18 -33 1 -19 -25 21 -40 -39 -73 -69 -37 -19 22 -27 18 -34 -16 -5 -27 -9 -30
-38 -27 -25 2 -34 8 -36 26 -3 22 -26 30 -37 12 -3 -5 -18 -10 -32 -10 -16 0
-27 -7 -30 -20 -8 -32 -51 -26 -71 10 -19 34 -25 36 -42 15 -27 -32 -85 -9
-78 31 2 12 -6 20 -29 26 -34 9 -42 25 -22 45 8 8 3 16 -21 28 -42 22 -58 15
-52 -24 4 -27 1 -31 -20 -31 -13 0 -30 6 -37 13 -10 10 -16 7 -30 -12 -15 -19
-23 -22 -50 -16 -18 4 -49 18 -68 31 -40 27 -103 47 -136 42 -18 -3 -22 1 -20
25 2 23 -2 27 -26 27 -48 0 -61 33 -37 91 5 12 1 18 -17 23 -25 6 -40 35 -28
55 5 8 13 7 27 -4 10 -8 31 -15 46 -15 22 0 29 -6 33 -27 12 -59 58 -135 99
-162 52 -34 144 -36 229 -3 99 38 128 31 217 -54 110 -106 214 -97 342 29 88
87 133 102 231 75 55 -14 82 -7 139 37 49 39 91 115 103 192 7 46 24 62 68 63
20 0 27 -5 27 -19z m-5763 -7 l42 -5 -17 -37 c-9 -20 -18 -39 -19 -41 -2 -2
-21 1 -44 8 -35 11 -44 10 -73 -7 -32 -19 -33 -19 -55 -1 -13 11 -33 19 -45
19 -18 0 -14 7 24 40 49 43 40 42 187 24z m273 -7 c0 -26 -24 -65 -32 -51 -3
5 -9 24 -13 42 -6 30 -5 32 19 32 20 0 26 -5 26 -23z m3986 11 c8 -13 -30 -48
-52 -48 -12 0 -12 5 1 30 16 31 38 39 51 18z m-4089 -4 c-3 -3 -12 -4 -19 -1
-8 3 -5 6 6 6 11 1 17 -2 13 -5z m384 -4 c17 0 135 -178 204 -307 l28 -52 -51
-53 c-36 -37 -54 -50 -62 -42 -14 14 -230 442 -230 456 0 7 15 9 46 4 26 -3
55 -6 65 -6z m758 -4 c9 -10 8 -16 -3 -26 -19 -15 -36 -5 -36 21 0 22 22 25
39 5z m-1209 -21 c-16 -17 -20 -29 -13 -36 13 -13 63 5 81 29 11 15 14 15 22
2 7 -11 4 -17 -14 -21 -12 -4 -40 -18 -63 -33 -45 -30 -73 -26 -73 9 0 25 45
75 68 75 12 0 10 -6 -8 -25z m-557 2 c42 -18 59 -38 47 -57 -7 -12 -12 -12
-22 -2 -6 6 -30 12 -51 12 -51 0 -85 -35 -115 -121 -25 -71 -30 -194 -11 -232
20 -38 51 -66 80 -72 33 -7 36 -17 13 -36 -14 -11 -23 -9 -63 11 -36 20 -52
37 -74 80 -27 52 -28 60 -24 150 6 127 35 201 95 247 47 36 75 40 125 20z
m797 3 c0 -5 -6 -10 -14 -10 -8 0 -18 5 -21 10 -3 6 3 10 14 10 12 0 21 -4 21
-10z m2451 -9 c21 -19 21 -19 1 -30 -24 -13 -48 9 -38 34 7 20 13 19 37 -4z
m-2257 -233 l116 -227 -43 -11 c-23 -6 -56 -15 -74 -20 -22 -5 -35 -4 -41 3
-5 7 -40 93 -76 192 -37 99 -71 191 -77 204 -9 21 -5 29 28 63 20 21 40 35 44
30 5 -4 60 -109 123 -234z m922 203 c-9 -16 -16 -37 -16 -46 0 -15 -17 -19
-42 -10 -10 4 -2 18 27 49 22 23 41 42 43 40 2 -1 -4 -16 -12 -33z m114 30 c0
-5 -14 -14 -30 -21 -20 -8 -33 -23 -38 -44 -12 -43 4 -72 49 -90 28 -12 40
-23 45 -43 3 -16 9 -40 14 -55 10 -32 3 -40 -64 -65 -64 -24 -94 -62 -78 -98
13 -27 81 -64 120 -65 28 0 29 -16 2 -30 -26 -14 -60 -4 -81 22 -14 18 -19 19
-39 8 -39 -21 -97 22 -60 45 16 10 0 33 -20 28 -10 -3 -21 0 -25 7 -12 19 16
40 51 40 27 0 37 6 45 24 6 13 22 29 35 35 14 6 27 18 31 26 5 14 8 14 24 -1
11 -10 22 -15 25 -11 15 14 -11 49 -55 73 -40 23 -47 31 -43 51 3 14 -3 31
-12 42 -12 13 -14 21 -6 26 6 3 22 29 35 56 20 39 30 49 50 49 14 0 25 -4 25
-9z m-170 -16 c0 -16 -49 -45 -76 -45 -14 0 -12 6 11 30 30 32 65 40 65 15z
m309 -32 c11 -21 -10 -67 -34 -77 -48 -18 -75 54 -35 94 22 22 50 15 69 -17z
m131 18 c0 -17 -27 -37 -37 -27 -7 7 17 46 27 46 6 0 10 -9 10 -19z m2475 8
c10 -15 -25 -38 -57 -39 -32 0 -35 11 -12 34 18 18 60 21 69 5z m-4005 -9 c0
-5 -7 -10 -16 -10 -8 0 -12 5 -9 10 3 6 10 10 16 10 5 0 9 -4 9 -10z m-560
-25 c44 -9 55 -16 54 -31 -3 -33 -75 -447 -85 -486 -5 -21 -16 -38 -23 -38
-24 0 -161 32 -169 40 -4 4 8 72 26 151 19 79 45 200 57 268 l22 123 32 -7
c17 -4 56 -13 86 -20z m1440 6 c0 -22 -15 -35 -30 -26 -7 4 -7 13 0 26 14 25
30 25 30 0z m389 -73 c1 -24 -14 -23 -39 2 -26 26 -25 45 2 72 l23 23 7 -40
c4 -22 7 -48 7 -57z m911 78 c0 -31 -23 -76 -39 -76 -42 0 -55 49 -19 74 28
20 58 21 58 2z m247 -6 c11 -16 10 -21 -5 -28 -23 -12 -42 -4 -42 17 0 35 28
42 47 11z m-627 -22 c0 -6 -7 -5 -15 2 -8 7 -15 17 -15 22 0 6 7 5 15 -2 8 -7
15 -17 15 -22z m-1850 -2 l45 -13 72 -194 c40 -107 75 -201 78 -210 4 -12 -14
-27 -74 -58 -43 -22 -81 -41 -84 -41 -3 0 -9 21 -12 48 -3 26 -13 85 -21 132
-8 47 -23 132 -34 190 -10 58 -21 117 -25 133 -8 31 -6 31 55 13z m2315 -11
c0 -11 -10 -24 -22 -30 -27 -11 -28 -18 -8 -35 35 -29 7 -88 -36 -75 -19 6
-20 4 -15 -22 5 -22 1 -36 -13 -54 -17 -22 -22 -23 -50 -12 -29 11 -31 10 -31
-12 0 -25 -24 -55 -43 -55 -15 0 -57 28 -57 38 0 4 22 19 49 35 73 41 138 118
159 189 15 53 19 58 42 56 17 -2 25 -9 25 -23z m85 6 c13 -26 13 -31 -3 -31
-19 0 -36 20 -30 36 7 20 21 17 33 -5z m-3090 -17 c19 -18 3 -48 -29 -52 -34
-5 -82 18 -79 37 7 37 74 47 108 15z m610 -11 c6 -21 17 -81 26 -133 8 -52 21
-124 29 -160 7 -36 16 -94 20 -129 l7 -63 -68 7 c-38 4 -71 11 -75 16 -3 5
-11 82 -17 172 -7 89 -15 188 -18 219 l-6 57 39 25 c21 14 41 25 45 25 4 1 12
-16 18 -36z m1660 -9 c0 -44 -1 -45 -27 -42 -23 2 -27 7 -25 28 4 26 29 60 44
60 4 0 8 -21 8 -46z m-1913 28 c-3 -4 -8 -68 -11 -142 -8 -154 -26 -382 -32
-392 -5 -8 -79 17 -110 37 -19 12 -21 19 -13 52 5 21 20 108 34 193 14 85 27
170 30 187 5 25 15 38 43 53 38 20 67 26 59 12z m87 -9 c32 -15 35 -21 40 -67
5 -54 28 -345 30 -385 1 -21 -8 -27 -74 -52 -41 -15 -79 -28 -84 -28 -5 -1 -6
36 -2 87 4 48 13 170 21 272 7 102 14 186 14 188 2 6 23 1 55 -15z m1326 12
c0 -3 -10 -20 -22 -38 -13 -18 -24 -34 -25 -35 -1 -2 -23 -6 -50 -8 -26 -2
-55 -6 -63 -9 -8 -2 -2 5 14 18 16 12 43 34 60 49 27 24 86 39 86 23z m1860
-41 c51 -25 123 -52 161 -61 68 -15 69 -15 69 -49 l0 -33 -49 24 c-27 14 -61
25 -75 25 -39 0 -32 -27 12 -41 76 -24 77 -27 35 -58 -56 -40 -119 -116 -144
-172 -22 -48 -39 -63 -39 -34 0 8 5 15 10 15 6 0 10 14 10 31 0 20 -4 29 -12
26 -7 -2 -12 -12 -12 -21 3 -28 -10 -17 -38 32 -26 46 -75 97 -142 150 l-29
22 17 44 c14 36 111 146 129 146 3 0 46 -20 97 -46z m728 -6 c21 -55 37 -115
47 -180 13 -82 -41 -180 -119 -217 -38 -19 -55 -21 -101 -16 -63 8 -114 38
-133 78 -7 15 -17 27 -23 27 -15 0 -31 51 -20 64 6 7 4 25 -4 49 -7 20 -11 37
-10 37 2 0 10 3 19 6 12 5 16 0 16 -19 0 -26 24 -54 34 -39 7 12 -4 52 -16 52
-5 0 -6 5 -3 10 3 6 25 10 48 10 48 0 80 15 59 28 -6 5 -47 2 -89 -5 -42 -7
-78 -11 -80 -9 -2 2 1 14 6 28 8 20 21 27 88 41 68 15 200 72 228 98 19 19 33
7 53 -43z m-2500 16 c22 -15 31 -64 12 -64 -28 0 -110 23 -110 31 0 16 39 49
58 49 10 0 28 -7 40 -16z m451 -15 c-13 -26 -20 -21 -12 9 3 12 9 19 14 16 5
-3 4 -14 -2 -25z m-754 -35 c-51 -52 -74 -101 -60 -124 4 -6 -4 -10 -19 -10
-30 0 -32 7 -11 34 8 11 15 30 15 42 0 25 68 95 103 106 12 3 23 6 24 7 1 1
-23 -24 -52 -55z m-1612 -15 c33 -9 47 -18 47 -30 0 -29 -28 -50 -58 -43 -43
11 -82 33 -82 48 0 28 13 48 29 43 9 -3 37 -11 64 -18z m1647 -8 c0 -5 8 -11
19 -14 19 -5 35 -54 20 -62 -9 -6 -59 56 -59 73 0 7 5 12 10 12 6 0 10 -4 10
-9z m298 -35 c32 -10 52 -22 49 -29 -5 -17 -45 -21 -63 -6 -11 9 -18 8 -32 -5
-34 -30 -82 -14 -82 26 0 10 -7 18 -15 18 -8 0 -15 -5 -15 -11 0 -19 -55 -5
-58 15 -4 17 2 18 80 13 45 -2 107 -12 136 -21z m592 4 c39 -39 21 -60 -50
-60 -29 0 -42 5 -50 20 -9 17 -5 22 27 39 48 25 49 25 73 1z m1480 -5 c0 -18
-5 -25 -19 -25 -11 0 -26 -3 -35 -6 -13 -5 -16 1 -16 25 0 29 3 31 35 31 31 0
35 -3 35 -25z m-2516 -29 c-3 -9 -13 -16 -22 -16 -13 0 -12 3 3 20 20 23 29
21 19 -4z m129 -38 c-2 -5 -13 -8 -24 -8 -14 0 -19 7 -19 28 0 16 3 32 7 35 8
8 42 -45 36 -55z m-1640 2 c32 0 46 -35 24 -57 -13 -13 -21 -13 -48 -4 -47 16
-69 40 -69 73 l0 30 34 -21 c18 -12 45 -21 59 -21z m1752 22 c-3 -3 -11 0 -18
7 -9 10 -8 11 6 5 10 -3 15 -9 12 -12z m1566 -18 c14 -7 50 -39 80 -72 106
-114 174 -348 138 -477 -11 -37 -75 -115 -96 -115 -6 0 -8 20 -5 48 9 95 -57
276 -142 388 -75 100 -141 129 -220 98 -17 -7 -19 -4 -13 30 6 38 37 84 72
107 46 29 121 27 186 -7z m-1486 -8 c26 -24 26 -25 6 -36 -17 -8 -24 -7 -41
10 -21 21 -24 32 -13 43 11 12 21 8 48 -17z m-100 -25 c0 -33 -29 -50 -55 -33
-18 11 -21 10 -29 -11 -11 -27 -40 -39 -65 -25 -16 9 -23 47 -8 49 51 4 79 12
101 29 33 25 56 21 56 -9z m204 3 c-6 -8 -21 -14 -33 -14 -20 0 -20 1 4 19 27
21 48 18 29 -5z m-399 -31 c0 -22 -39 -36 -58 -22 -9 8 -18 14 -20 15 -2 1 0
13 3 27 7 26 7 26 41 10 19 -9 34 -22 34 -30z m1143 27 c14 -11 39 -20 56 -20
35 0 38 -6 14 -32 -22 -25 -48 -23 -70 6 -17 21 -21 22 -38 10 -25 -18 -79
-18 -95 1 -18 22 -28 19 -56 -15 -27 -32 -73 -57 -113 -62 -17 -2 -25 -10 -28
-27 -7 -47 -48 -70 -80 -45 -22 17 -33 17 -33 2 0 -21 -33 -48 -60 -48 -31 0
-50 17 -50 45 0 17 10 22 58 31 60 12 140 45 252 104 141 75 196 86 243 50z
m-1249 -27 c5 -16 2 -23 -14 -28 -12 -4 -27 -1 -35 5 -12 10 -24 8 -57 -9 -42
-21 -56 -21 -44 -2 11 17 129 72 137 63 4 -4 10 -17 13 -29z m2613 -54 c8 -35
23 -78 34 -96 23 -37 93 -74 155 -81 56 -6 56 -19 0 -27 -47 -7 -122 11 -164
41 -57 40 -93 140 -78 220 7 33 9 35 23 21 8 -8 22 -44 30 -78z m-94 3 c7
-107 53 -194 120 -228 18 -9 35 -22 39 -28 4 -6 32 -11 63 -11 30 -1 61 -7 67
-13 19 -19 7 -20 -60 -10 -68 10 -96 6 -90 -15 3 -7 31 -14 71 -18 37 -3 70
-9 73 -12 12 -12 -29 -101 -62 -135 -31 -32 -80 -51 -130 -52 -41 0 -110 57
-141 118 -44 82 -57 149 -50 256 7 125 46 224 88 226 3 0 9 -35 12 -78z m-327
-136 c41 -79 41 -94 0 -161 -28 -45 -28 -45 -46 60 -14 81 -39 154 -77 228
-41 77 -40 78 26 9 33 -35 76 -96 97 -136z m1310 158 c78 -44 146 -147 160
-241 9 -58 24 -44 24 22 0 42 -8 68 -34 119 -23 43 -30 66 -21 66 7 0 18 6 24
14 8 10 23 13 47 9 20 -3 40 -1 48 6 12 10 21 8 45 -10 17 -13 31 -25 31 -27
0 -2 -9 -15 -19 -28 -31 -39 -72 -176 -80 -267 -8 -86 -39 -164 -80 -201 l-21
-19 0 51 c0 28 -11 87 -25 131 -38 119 -101 206 -190 258 -26 16 -98 16 -113
1 -9 -9 -12 -3 -12 27 0 74 69 130 145 117 17 -2 49 -15 71 -28z m-2876 -25
c0 -29 -12 -35 -44 -23 -21 8 -20 33 1 56 21 23 43 7 43 -33z m-2080 11 c8 0
21 -4 29 -9 12 -8 12 -12 2 -25 -19 -23 -29 -20 -62 15 -34 37 -38 57 -7 35
12 -9 29 -16 38 -16z m5893 -103 c-39 -68 -120 -81 -219 -38 -43 20 -44 20
-44 1 0 -12 13 -27 33 -37 30 -16 30 -18 9 -21 -12 -2 -36 4 -54 12 -39 20
-51 11 -19 -15 20 -17 68 -25 109 -20 33 5 -33 -135 -83 -173 -36 -28 -92 -45
-120 -37 -58 17 -80 60 -78 154 2 98 22 151 57 155 14 2 34 14 42 28 18 27 40
30 68 9 26 -19 80 -19 100 0 8 8 31 15 50 15 35 0 76 27 76 50 0 6 13 10 30
10 16 0 35 6 42 14 22 24 23 -69 1 -107z m-4018 76 c13 -16 25 -36 25 -46 0
-24 59 -59 93 -54 27 3 39 -5 62 -43 5 -9 25 -36 43 -60 17 -24 30 -45 28 -47
-9 -9 -64 27 -94 61 -17 20 -34 36 -37 36 -14 0 -2 -37 21 -67 14 -19 24 -37
21 -39 -8 -8 -63 23 -102 58 -20 17 -39 27 -43 23 -12 -12 68 -74 146 -112 8
-4 -30 -62 -60 -92 -42 -42 -99 -71 -138 -71 -40 0 -103 32 -123 64 -36 54
-17 189 42 304 19 38 77 112 88 112 2 0 15 -12 28 -27z m813 -20 c26 -16 61
-86 62 -122 0 -18 -4 -22 -17 -15 -77 33 -152 1 -230 -98 -114 -144 -172 -315
-132 -389 10 -20 9 -20 -20 -5 -59 31 -89 92 -121 246 -23 113 -46 173 -87
233 -31 44 -25 58 13 28 34 -26 74 -27 107 -1 33 26 72 27 62 3 -4 -10 -17
-49 -29 -86 -15 -51 -18 -72 -10 -85 18 -28 26 -20 44 47 51 183 244 315 358
244z m467 -46 c27 -123 126 -364 185 -447 l22 -32 -27 4 c-59 7 -177 231 -224
424 -17 71 -17 80 -3 91 21 17 39 1 47 -40z m63 23 c24 -15 32 -26 28 -38 -9
-28 76 -257 150 -404 17 -33 20 -49 12 -54 -36 -22 -198 314 -227 474 -5 23
-6 42 -2 42 3 0 21 -9 39 -20z m-1998 -45 c11 -13 8 -15 -16 -15 -16 0 -47 -3
-69 -7 -48 -7 -39 7 13 23 51 16 58 16 72 -1z m2104 -72 c51 -77 96 -200 102
-283 l4 -55 -21 45 c-12 25 -48 110 -81 190 -33 80 -62 151 -65 158 -3 6 -1
12 5 12 5 0 30 -30 56 -67z m1528 30 c13 -21 37 -67 52 -103 16 -36 54 -115
84 -177 54 -108 64 -152 23 -102 -28 34 -124 211 -157 289 -14 36 -33 80 -41
98 -20 47 7 43 39 -5z m-18 -102 c31 -72 78 -167 106 -213 54 -89 50 -119 -6
-54 -42 49 -93 147 -143 276 -46 118 -46 120 -27 120 7 0 37 -55 70 -129z
m-3579 99 c3 -5 5 -10 3 -10 -2 0 -70 -3 -153 -6 -107 -5 -147 -3 -140 4 6 6
44 12 85 14 41 2 103 4 137 6 35 2 64 -1 68 -8z m1908 -217 c14 -35 24 -63 21
-63 -10 0 -66 126 -84 192 -29 105 -23 117 9 18 15 -47 40 -113 54 -147z
m1800 135 c38 -56 87 -183 87 -227 0 -23 -3 -21 -26 19 -15 25 -50 98 -79 162
-58 127 -50 146 18 46z m-4037 27 c-11 -8 -31 -15 -45 -15 l-26 1 25 14 c14 8
34 14 45 14 20 0 20 0 1 -14z m326 3 c-9 -9 -57 -14 -149 -16 -124 -3 -136 -2
-124 12 11 13 38 16 149 16 109 0 134 -3 124 -12z m1450 6 c12 -11 -41 -181
-91 -294 -45 -101 -99 -180 -123 -180 -15 0 -8 31 16 73 32 54 117 252 145
340 20 60 36 78 53 61z m2087 -99 c56 -133 56 -135 32 -100 -30 43 -101 230
-77 204 2 -2 22 -49 45 -104z m-3316 80 c20 -8 47 -29 60 -47 24 -32 28 -43
41 -101 l7 -28 -26 17 c-36 23 -101 22 -151 -4 -53 -27 -134 -116 -179 -196
-51 -91 -76 -171 -78 -249 l-2 -68 -22 25 c-64 74 -84 242 -43 351 42 110 113
205 204 272 49 37 65 43 106 43 26 0 64 -7 83 -15z m1131 -87 c-42 -122 -158
-368 -173 -368 -17 0 -13 25 12 82 13 30 32 78 42 108 43 129 122 275 152 280
1 0 -14 -46 -33 -102z m-1961 85 c-7 -2 -21 -2 -30 0 -10 3 -4 5 12 5 17 0 24
-2 18 -5z m2086 -92 c-15 -54 -59 -154 -65 -148 -3 2 4 24 15 49 10 25 27 78
37 119 12 48 20 66 22 50 2 -13 -2 -45 -9 -70z m-2024 57 c19 -19 -16 -26
-132 -27 -127 -2 -144 4 -75 25 40 12 196 13 207 2z m100 -9 c0 -9 -11 -14
-34 -14 -42 0 -53 22 -14 28 38 5 48 3 48 -14z m65 11 c0 -12 -28 -25 -36 -17
-9 9 6 27 22 27 8 0 14 -5 14 -10z m110 4 c0 -5 -64 -34 -76 -34 -4 0 1 9 11
20 16 18 65 29 65 14z m167 -14 c-19 -15 -40 -20 -91 -20 -64 0 -66 1 -54 20
11 17 24 20 92 20 l79 0 -26 -20z m-752 -5 c28 -13 24 -13 -62 -14 -83 -1
-123 9 -91 22 26 11 124 6 153 -8z m370 -35 c-3 -5 -14 -10 -23 -9 -14 0 -13
2 3 9 27 11 27 11 20 0z m1746 -53 c-16 -35 -45 -106 -66 -158 -53 -134 -68
-143 -44 -27 6 29 27 82 46 118 35 63 80 130 88 130 2 0 -9 -28 -24 -63z
m-1834 38 c-22 -11 -38 -12 -70 -5 -23 5 -57 10 -74 10 -33 0 -44 -13 -20 -24
6 -4 -57 -4 -142 -1 -84 2 -156 6 -158 9 -3 3 -2 9 2 15 4 7 87 11 248 11 220
0 239 -1 214 -15z m393 7 c0 -23 -30 -32 -107 -32 -76 0 -83 2 -83 20 0 19 7
20 95 20 52 0 95 -4 95 -8z m19 -77 c-23 -36 -51 -97 -64 -136 l-22 -71 -11
31 c-9 26 -8 42 8 84 19 49 101 157 120 157 5 0 -9 -29 -31 -65z m-470 19 c2
-2 -2 -10 -9 -19 -10 -12 -44 -15 -204 -15 -105 0 -197 4 -205 9 -8 5 -11 16
-8 25 6 14 29 15 214 10 114 -4 210 -8 212 -10z m99 -60 c-8 -98 -106 -204
-187 -204 -20 0 -21 2 -11 15 7 8 17 15 22 15 43 0 138 138 138 201 0 26 16
41 34 31 4 -2 6 -29 4 -58z m122 46 c39 -28 44 -69 20 -167 -38 -160 -119
-293 -220 -362 -41 -28 -59 -34 -127 -38 l-80 -6 -43 39 c-24 22 -49 53 -57
71 -16 39 -16 104 1 158 l12 40 49 -4 c28 -1 58 -7 67 -12 30 -16 88 -10 137
15 69 35 103 67 135 126 23 42 27 61 24 106 -3 54 -3 54 25 54 16 0 41 -9 57
-20z m178 8 c-7 -20 -82 -22 -98 -3 -11 13 -6 15 45 15 41 0 56 -3 53 -12z
m492 -41 c0 -92 -129 -454 -177 -496 -16 -14 -29 -19 -31 -12 -2 6 16 60 41
119 40 97 103 299 122 390 5 23 12 32 26 32 15 0 19 -7 19 -33z m-111 -123
c-40 -154 -129 -388 -149 -391 -8 -2 -21 1 -28 6 -11 7 -3 42 42 175 73 217
113 313 139 331 12 9 23 11 25 7 1 -5 -11 -63 -29 -128z m-784 106 l30 -7 -28
-12 c-31 -12 -249 -15 -359 -4 -54 5 -68 9 -68 23 0 15 18 16 198 12 108 -2
211 -7 227 -12z m365 10 c0 -5 -4 -10 -9 -10 -6 0 -13 5 -16 10 -3 6 1 10 9
10 9 0 16 -4 16 -10z m589 -11 c12 -33 -4 -109 -41 -201 -31 -76 -97 -192
-106 -184 -2 2 8 30 21 62 35 84 84 241 92 297 8 50 21 60 34 26z m-957 -52
c4 -1 3 -9 -2 -17 -8 -12 -37 -15 -162 -15 -173 1 -248 10 -248 30 0 11 37 12
203 8 111 -2 205 -5 209 -6z m693 -74 c-104 -298 -112 -318 -119 -286 -7 32
13 135 36 188 26 60 93 165 104 165 2 0 -8 -30 -21 -67z m-862 23 c67 -1 116
-6 115 -12 -3 -11 -261 -12 -300 -1 -47 13 -33 28 20 22 26 -4 100 -7 165 -9z
m7 -46 c64 -1 65 -1 37 -16 -25 -14 -36 -13 -102 1 -79 18 -101 30 -37 21 20
-3 66 -6 102 -6z"/>
<path d="M6605 3320 c-11 -18 6 -30 44 -30 44 0 55 8 40 27 -13 15 -75 18 -84
3z"/>
<path d="M6528 3279 c-30 -17 -20 -29 22 -29 41 0 57 21 24 34 -21 8 -26 7
-46 -5z"/>
<path d="M6033 3240 c-25 -10 -32 -40 -9 -40 27 0 77 23 73 34 -5 14 -36 18
-64 6z"/>
<path d="M6068 3199 c-29 -16 -21 -31 14 -27 22 2 34 9 36 21 4 19 -22 23 -50
6z"/>
<path d="M5964 3163 c-17 -17 -17 -18 0 -21 29 -6 66 7 66 23 0 21 -44 19 -66
-2z"/>
<path d="M5800 3080 c0 -5 5 -10 10 -10 6 0 10 5 10 10 0 6 -4 10 -10 10 -5 0
-10 -4 -10 -10z"/>
<path d="M4680 3326 c0 -18 6 -22 53 -30 29 -5 37 -4 37 8 0 18 -6 22 -52 30
-30 5 -38 4 -38 -8z"/>
<path d="M4583 3304 c-8 -21 13 -34 55 -34 40 0 44 26 6 40 -36 14 -54 12 -61
-6z"/>
<path d="M4245 3271 c-33 -7 -41 -34 -12 -39 29 -6 67 7 67 22 0 18 -18 24
-55 17z"/>
<path d="M4697 3273 c-14 -13 -6 -22 30 -32 46 -13 69 2 39 25 -21 15 -58 19
-69 7z"/>
<path d="M5174 3119 c-9 -14 41 -64 55 -55 16 11 13 23 -11 46 -25 23 -34 25
-44 9z"/>
<path d="M5266 3092 c-6 -10 41 -82 54 -82 21 0 20 23 -2 55 -22 34 -42 44
-52 27z"/>
<path d="M5245 3030 c-6 -10 33 -70 47 -70 15 0 8 47 -10 63 -21 20 -28 21
-37 7z"/>
<path d="M3015 3181 c-16 -3 -31 -13 -33 -22 -3 -14 3 -15 38 -9 22 4 43 10
46 13 7 7 -4 27 -14 26 -4 -1 -20 -4 -37 -8z"/>
<path d="M3293 3163 c-7 -2 -13 -11 -13 -19 0 -15 12 -17 48 -8 18 5 20 9 11
20 -12 14 -24 16 -46 7z"/>
<path d="M3025 3130 c-11 -18 5 -28 32 -21 38 10 41 31 4 31 -16 0 -33 -4 -36
-10z"/>
<path d="M2903 3105 c-3 -9 -3 -18 0 -21 8 -9 70 11 75 24 6 19 -67 16 -75 -3z"/>
<path d="M3705 2971 c-3 -5 -1 -12 5 -16 5 -3 10 1 10 9 0 18 -6 21 -15 7z"/>
<path d="M1343 2953 c-26 -10 -13 -33 18 -33 26 0 29 -2 20 -14 -16 -19 -4
-25 37 -19 36 6 43 22 12 30 -11 3 -17 10 -14 15 13 20 -39 35 -73 21z"/>
<path d="M1266 2887 c-11 -8 -15 -16 -10 -19 16 -10 75 4 71 16 -5 17 -40 19
-61 3z"/>
<path d="M798 2684 c-27 -14 -39 -44 -18 -44 6 0 25 7 43 16 32 17 32 16 15
-3 -10 -11 -18 -23 -18 -26 0 -14 39 -6 61 13 l24 20 -22 6 c-13 3 -23 13 -23
20 0 18 -28 17 -62 -2z"/>
<path d="M730 2595 c-15 -16 -20 -29 -14 -35 13 -13 74 24 74 45 0 23 -34 18
-60 -10z"/>
<path d="M6627 2818 c-43 -33 -63 -170 -31 -216 30 -43 88 -17 113 51 16 42
13 124 -5 152 -18 27 -50 32 -77 13z"/>
<path d="M6470 2579 c-22 -23 -40 -48 -40 -55 0 -20 28 -17 39 4 5 9 23 25 39
34 28 17 30 17 46 -1 9 -9 16 -23 16 -29 0 -7 7 -12 15 -12 20 0 19 35 -2 71
-26 43 -63 39 -113 -12z"/>
<path d="M6223 2548 c-33 -20 -47 -56 -18 -44 8 3 21 8 28 11 23 10 38 -63 30
-149 -6 -71 -4 -78 17 -101 13 -14 32 -25 42 -25 24 0 90 34 108 55 10 12 23
15 47 10 50 -9 98 18 117 66 11 26 22 39 35 39 10 0 22 7 25 16 9 24 8 27 -11
19 -89 -34 -219 -22 -294 26 -58 37 -84 65 -70 74 6 3 11 10 11 16 0 15 -33 9
-67 -13z m265 -155 c74 -6 84 -13 55 -45 -20 -23 -52 -23 -69 0 -10 14 -15 15
-25 5 -7 -7 -25 -13 -40 -13 -28 0 -39 15 -39 52 0 16 4 19 23 13 12 -3 55 -9
95 -12z m-123 -73 c17 -19 17 -20 -16 -34 -37 -16 -59 -7 -59 24 0 33 48 40
75 10z"/>
<path d="M4683 2890 c-34 -20 -70 -67 -60 -77 3 -3 20 9 37 26 34 34 47 37 82
20 37 -17 58 -54 66 -118 5 -34 7 -61 5 -61 -2 0 -14 7 -26 15 -34 22 -65 8
-89 -39 -31 -59 -30 -132 1 -157 30 -25 35 -24 70 9 67 61 102 222 67 305 -15
38 -79 97 -104 97 -9 0 -31 -9 -49 -20z"/>
<path d="M4444 2702 c-28 -18 -54 -79 -54 -125 0 -56 33 -100 69 -90 22 5 58
71 62 113 7 72 -36 129 -77 102z"/>
<path d="M4483 2475 c-14 -29 -14 -37 -4 -48 10 -8 15 -9 18 -1 2 6 10 19 17
30 13 17 15 17 50 -10 36 -27 56 -27 56 -1 0 19 -69 65 -97 65 -17 0 -28 -10
-40 -35z"/>
<path d="M4708 2433 c0 -5 -2 -14 -2 -22 -1 -8 -23 -26 -51 -40 -61 -32 -157
-35 -222 -8 -61 24 -53 5 15 -37 31 -19 73 -51 92 -71 91 -95 170 -79 170 33
0 21 9 53 19 72 15 28 24 34 45 32 30 -3 35 13 9 26 -28 14 -73 23 -75 15z
m-40 -162 c11 -6 10 -11 -3 -25 -21 -20 -49 -21 -66 0 -10 13 -10 17 2 25 18
11 50 11 67 0z"/>
<path d="M3256 2680 c-45 -54 -57 -147 -25 -187 16 -18 64 -16 85 4 57 58 58
192 0 207 -32 9 -32 8 -60 -24z"/>
<path d="M3536 2621 c-33 -35 -47 -88 -35 -138 14 -62 59 -81 97 -40 48 52 57
143 17 182 -31 32 -45 31 -79 -4z"/>
<path d="M3403 2475 c-31 -13 -77 -67 -67 -78 4 -3 24 8 46 26 l40 32 22 -28
c12 -15 25 -27 29 -27 10 0 9 38 -3 59 -14 26 -32 31 -67 16z"/>
<path d="M3131 2432 c-45 -22 -53 -44 -16 -40 24 3 30 -2 41 -32 7 -19 13 -76
13 -126 1 -86 2 -93 26 -108 38 -25 69 -11 147 65 72 69 95 83 159 94 21 3 43
13 50 22 13 15 10 16 -26 10 -153 -24 -222 -13 -307 50 -49 35 -57 48 -36 55
12 4 3 28 -10 28 -4 -1 -22 -9 -41 -18z m164 -206 c17 -12 17 -16 6 -30 -26
-31 -69 -56 -85 -50 -24 9 -20 60 6 78 28 20 49 20 73 2z"/>
<path d="M1640 2563 c-39 -28 -66 -122 -39 -139 14 -9 32 10 45 49 12 37 42
46 75 23 23 -16 49 -11 49 8 0 19 -43 55 -78 65 -22 7 -36 5 -52 -6z"/>
<path d="M1297 2429 c-26 -15 -60 -87 -53 -115 11 -41 42 -30 58 19 11 35 18
43 41 45 15 2 43 -6 62 -17 l35 -20 11 21 c10 18 8 24 -12 39 -24 19 -81 39
-109 39 -8 0 -23 -5 -33 -11z"/>
<path d="M1520 2353 c-22 -28 -24 -64 -4 -70 7 -2 17 10 22 27 12 33 41 40 61
16 15 -18 1 -50 -25 -60 -13 -5 -15 -9 -6 -18 17 -17 66 22 70 56 9 71 -74
105 -118 49z"/>
<path d="M1703 2236 c-76 -78 -226 -132 -307 -112 -22 5 -25 11 -20 31 13 52
-36 22 -80 -49 -22 -35 -8 -55 19 -26 10 11 23 20 30 20 19 0 51 -41 85 -110
44 -90 55 -100 105 -100 63 0 90 40 119 173 15 64 26 89 67 142 27 35 49 67
49 70 0 16 -30 -1 -67 -39z m-100 -209 c-1 -16 -11 -45 -21 -65 -25 -48 -68
-52 -92 -9 -15 28 -14 29 29 68 53 48 87 50 84 6z"/>
<path d="M7076 2484 c-9 -20 -26 -38 -36 -41 -24 -6 -26 -21 -3 -30 20 -8 73
48 73 77 0 33 -16 30 -34 -6z"/>
<path d="M5541 2499 c-41 -119 39 -269 144 -269 36 0 31 16 -9 30 -80 26 -131
100 -123 179 2 25 8 56 12 69 4 13 3 22 -3 22 -5 0 -15 -14 -21 -31z"/>
<path d="M5457 2427 c-16 -42 40 -179 79 -194 26 -10 28 6 5 29 -32 29 -61 96
-61 141 0 36 -13 50 -23 24z"/>
<path d="M3496 1613 c-53 -18 -76 -40 -76 -75 0 -21 8 -33 33 -48 48 -30 102
-26 138 9 32 33 34 45 15 80 -21 37 -63 51 -110 34z m71 -21 c22 -14 25 -57 6
-74 -46 -39 -123 -23 -123 26 0 37 82 70 117 48z"/>
<path d="M2960 1447 c-29 -15 -49 -34 -55 -51 -8 -25 -6 -31 18 -52 41 -35 73
-31 119 16 l40 40 -19 32 c-24 42 -47 45 -103 15z m84 -51 c-10 -26 -76 -56
-97 -45 -35 20 -13 66 43 88 31 11 65 -15 54 -43z"/>
<path d="M4555 1418 c-9 -14 -11 -24 -5 -26 14 -5 40 17 40 34 0 21 -17 17
-35 -8z"/>
<path d="M4486 1344 c-18 -17 -22 -54 -6 -54 14 0 42 58 31 65 -5 3 -17 -2
-25 -11z"/>
<path d="M4870 1330 c0 -11 7 -23 15 -27 21 -8 28 1 20 26 -8 27 -35 27 -35 1z"/>
<path d="M1160 620 c-24 -15 0 -30 58 -37 43 -5 52 -3 52 9 0 10 -16 20 -44
27 -53 13 -47 13 -66 1z"/>
<path d="M1935 3549 c-4 -6 -5 -12 -2 -15 7 -7 37 7 37 17 0 13 -27 11 -35 -2z"/>
<path d="M3728 3543 c-10 -3 -18 -9 -18 -14 0 -15 30 -23 43 -10 14 14 -2 29
-25 24z"/>
<path d="M1698 3529 c-22 -12 -23 -42 -4 -58 20 -17 67 -10 80 12 9 15 7 22
-13 38 -26 21 -38 23 -63 8z m52 -34 c0 -8 -6 -15 -14 -15 -17 0 -28 14 -19
24 12 12 33 6 33 -9z"/>
<path d="M2050 3515 c-7 -9 -10 -18 -7 -22 8 -7 37 15 37 28 0 14 -16 11 -30
-6z"/>
<path d="M3836 3495 c-7 -18 19 -45 45 -45 25 0 35 25 19 45 -16 19 -56 19
-64 0z"/>
<path d="M1807 3482 c-14 -16 -15 -21 -3 -37 15 -20 43 -15 52 10 6 15 -11 45
-26 45 -4 0 -14 -8 -23 -18z"/>
<path d="M1903 3475 c-3 -9 -3 -18 0 -21 9 -9 27 6 27 22 0 19 -19 18 -27 -1z"/>
<path d="M7391 3413 c-20 -17 -21 -19 -6 -40 18 -26 43 -29 70 -9 18 13 18 17
6 40 -17 30 -40 33 -70 9z m47 -25 c-6 -18 -28 -21 -28 -4 0 9 7 16 16 16 9 0
14 -5 12 -12z"/>
<path d="M1534 3406 c-9 -24 15 -58 39 -54 27 4 33 30 12 52 -20 20 -44 21
-51 2z"/>
<path d="M1810 3374 c0 -9 5 -14 12 -12 18 6 21 28 4 28 -9 0 -16 -7 -16 -16z"/>
<path d="M7704 3377 c-2 -7 7 -39 20 -72 13 -33 27 -77 31 -98 l7 -37 -46 0
c-38 0 -48 -4 -62 -25 -31 -47 3 -105 61 -105 86 0 107 38 81 145 -20 80 -10
90 82 90 37 0 76 -4 86 -9 18 -9 19 -6 13 30 -12 76 -89 110 -181 80 -45 -14
-52 -14 -62 -1 -14 18 -23 19 -30 2z"/>
<path d="M2482 3231 c4 -13 18 -16 19 -4 0 4 -5 9 -11 12 -7 2 -11 -2 -8 -8z"/>
<path d="M2303 3220 c-27 -11 -29 -23 -7 -45 25 -24 49 -15 49 19 0 33 -10 39
-42 26z"/>
<path d="M2225 2864 c-46 -56 -64 -102 -65 -166 0 -66 25 -124 68 -153 47 -32
54 -23 14 18 -82 84 -82 198 -2 290 22 25 40 48 40 51 0 16 -19 2 -55 -40z"/>
<path d="M360 2851 c0 -12 28 -41 39 -41 14 0 33 29 26 40 -8 12 -65 13 -65 1z"/>
<path d="M2085 2760 c-13 -15 -18 -37 -19 -83 -1 -73 21 -117 56 -117 l21 0
-20 23 c-36 39 -47 122 -23 167 16 29 7 35 -15 10z"/>
<path d="M437 2753 c-12 -11 -8 -23 8 -23 8 0 15 7 15 15 0 16 -12 20 -23 8z"/>
<path d="M7603 2515 c-14 -11 -16 -18 -7 -32 23 -37 84 -21 64 17 -13 25 -35
31 -57 15z m37 -19 c0 -11 -19 -15 -25 -6 -3 5 1 10 9 10 9 0 16 -2 16 -4z"/>
<path d="M7736 2491 c-7 -11 18 -33 27 -24 4 3 7 12 7 20 0 15 -26 18 -34 4z"/>
<path d="M7406 2368 c-3 -13 -7 -41 -10 -62 -7 -53 -51 -105 -116 -138 -43
-23 -67 -28 -123 -28 -51 0 -68 -3 -64 -12 6 -18 118 -12 181 8 57 19 123 75
143 121 15 37 18 133 3 133 -5 0 -12 -10 -14 -22z"/>
<path d="M7331 2106 c-23 -28 -111 -57 -172 -57 -67 -1 -76 -13 -24 -35 19 -8
35 -19 35 -24 0 -18 -45 -39 -97 -46 -71 -9 -57 -28 14 -21 67 7 103 29 103
62 0 14 -5 25 -11 25 -5 0 -8 4 -5 9 3 4 26 11 51 13 46 6 135 52 143 76 5 16
-23 15 -37 -2z"/>
<path d="M275 1900 c-10 -16 5 -90 26 -130 23 -44 36 -60 73 -88 29 -22 86
-30 86 -12 0 6 -8 10 -18 10 -56 0 -140 103 -145 178 -3 44 -11 60 -22 42z"/>
<path d="M6380 710 l-35 -7 43 -2 c27 0 41 3 37 9 -3 6 -7 9 -8 9 -1 -1 -18
-5 -37 -9z"/>
<path d="M5521 641 c-7 -5 -10 -14 -7 -20 9 -13 116 -15 116 -1 0 25 -79 40
-109 21z"/>
<path d="M1465 320 c-16 -4 -88 -20 -158 -36 -120 -26 -130 -27 -139 -11 -8
14 -18 16 -61 11 -96 -11 -212 -52 -195 -69 1 -2 39 5 83 16 87 21 151 25 125
9 -10 -6 -12 -12 -4 -20 7 -7 25 -7 61 1 45 11 53 10 69 -5 10 -10 26 -15 38
-12 92 21 149 28 169 19 16 -8 53 -5 134 10 104 19 112 19 128 3 18 -18 56
-17 263 5 52 6 127 7 168 4 64 -6 74 -5 74 9 0 9 -12 19 -26 22 -26 7 -200 -1
-253 -11 -14 -3 -20 -2 -13 1 20 9 14 33 -10 39 -13 3 -46 1 -75 -3 -39 -7
-55 -6 -65 4 -11 11 -30 12 -93 4 -44 -5 -95 -12 -112 -16 -26 -5 -33 -3 -33
9 0 8 -7 18 -16 21 -18 7 -19 7 -59 -4z"/>
<path d="M7102 108 c-29 -22 -50 -43 -48 -45 3 -3 20 7 40 22 33 25 34 25 29
4 -6 -21 -6 -21 23 -3 28 18 29 18 14 0 -14 -18 -13 -19 13 -12 16 4 27 2 27
-4 0 -19 24 -10 48 18 21 25 22 25 17 5 -7 -26 12 -32 33 -11 9 9 12 9 12 0 0
-18 25 -15 41 5 12 15 12 16 -5 10 -16 -6 -17 -5 -6 8 18 22 4 31 -18 12 -25
-23 -31 -21 -25 4 5 19 4 20 -15 10 -13 -7 -23 -8 -27 -1 -4 6 -16 3 -33 -8
-25 -16 -26 -16 -19 1 8 21 3 21 -28 1 -22 -15 -23 -14 -18 5 7 27 7 27 -55
-21z m123 -8 c-3 -5 -12 -10 -18 -10 -7 0 -6 4 3 10 19 12 23 12 15 0z"/>
<path d="M7909 146 c-2 -3 -58 -7 -124 -11 -105 -5 -125 -9 -157 -30 -21 -14
-38 -21 -38 -16 0 6 5 13 10 16 6 3 10 11 10 17 0 6 -10 2 -22 -9 -13 -11 -31
-23 -41 -27 -27 -9 -16 16 14 31 19 10 20 13 6 13 -10 0 -34 -12 -53 -26 -33
-25 -50 -20 -19 6 9 7 13 15 11 18 -3 2 -19 -7 -36 -22 -17 -14 -36 -26 -41
-26 -15 0 -10 17 7 24 21 8 12 31 -12 32 -30 0 -57 -23 -60 -52 -3 -25 -2 -25
16 -9 10 9 21 12 24 7 3 -5 52 -10 108 -11 57 -2 116 -3 131 -3 17 -1 39 9 56
26 26 25 37 27 135 33 58 3 106 10 106 15 0 8 -23 11 -31 4z m-482 -32 c-3 -3
-12 -4 -19 -1 -8 3 -5 6 6 6 11 1 17 -2 13 -5z m244 -25 c-27 -22 -45 -25 -39
-6 5 14 50 38 58 31 3 -3 -6 -14 -19 -25z"/>
</g>
</svg>
