<?xml version="1.0" standalone="no"?>
<!DOCTYPE svg PUBLIC "-//W3C//DTD SVG 20010904//EN"
 "http://www.w3.org/TR/2001/REC-SVG-20010904/DTD/svg10.dtd">
<svg version="1.0" xmlns="http://www.w3.org/2000/svg"
 width="679.000000pt" height="1000.000000pt" viewBox="0 0 679.000000 1000.000000"
 preserveAspectRatio="xMidYMid meet">
<metadata>
Created by potrace 1.16, written by Peter Selinger 2001-2019
</metadata>
<g transform="translate(0.000000,1000.000000) scale(0.100000,-0.100000)"
fill="#000000" stroke="none">
<path d="M4546 9991 c-7 -11 6 -171 24 -303 6 -44 6 -76 0 -93 -15 -39 -12
-80 10 -174 14 -58 17 -88 10 -95 -18 -18 -11 -62 25 -162 19 -53 35 -102 35
-110 0 -7 -13 -14 -30 -16 l-30 -3 40 -60 c52 -77 52 -111 4 -142 -20 -13 -42
-23 -49 -23 -23 0 -46 -44 -49 -92 -2 -34 -11 -56 -38 -89 -70 -86 -128 -243
-128 -345 0 -63 -15 -94 -44 -94 -21 0 -25 6 -29 43 -5 50 -33 125 -53 148 -8
9 -26 47 -40 85 -29 81 -112 239 -161 308 -19 27 -44 69 -54 94 -11 25 -35 63
-55 84 -33 36 -34 42 -28 88 8 58 -5 80 -46 80 -15 0 -47 9 -71 20 -59 26 -78
25 -111 -7 -26 -25 -31 -26 -61 -15 -60 21 -85 16 -109 -24 -15 -26 -26 -34
-39 -30 -11 3 -28 9 -39 12 -13 4 -28 -3 -50 -24 -39 -39 -40 -88 -4 -150 25
-43 26 -46 10 -73 -31 -52 -15 -96 42 -113 12 -4 22 -11 22 -15 0 -12 -42 -47
-78 -65 -17 -9 -65 -21 -105 -26 -120 -16 -124 -15 -146 28 -11 21 -38 62 -61
91 -46 58 -48 80 -7 94 27 9 41 6 132 -27 17 -7 17 -5 -3 13 -43 37 -95 47
-156 28 -67 -22 -69 -22 -204 5 -101 19 -115 25 -133 50 -26 36 -70 37 -115 3
-18 -14 -37 -25 -43 -25 -13 0 -61 -63 -61 -81 0 -8 -16 -47 -36 -87 -29 -58
-35 -81 -31 -109 4 -23 -1 -52 -14 -85 -12 -32 -17 -61 -14 -82 4 -18 0 -46
-9 -68 -19 -45 -20 -88 -4 -123 9 -20 9 -37 -2 -77 -7 -28 -12 -81 -11 -118 1
-37 -5 -84 -13 -109 -53 -149 -19 -305 98 -440 34 -39 56 -75 61 -98 4 -23 21
-50 45 -74 31 -31 39 -48 45 -90 7 -53 12 -59 85 -121 11 -10 20 -28 20 -41 0
-12 13 -38 30 -57 30 -36 38 -60 20 -60 -15 0 -12 -51 5 -84 20 -37 19 -45 -4
-39 -43 11 -86 -45 -46 -61 9 -3 15 -18 15 -40 0 -31 -5 -38 -40 -56 -23 -12
-51 -38 -67 -63 -14 -23 -46 -71 -70 -107 -23 -36 -43 -73 -43 -83 0 -10 -6
-20 -14 -23 -30 -11 -48 -143 -44 -323 3 -144 6 -172 20 -188 20 -22 23 -50 8
-73 -8 -13 -11 -12 -24 5 -27 37 -29 6 -2 -35 33 -50 33 -62 1 -54 -36 9 -33
-22 6 -62 l30 -31 -26 -17 c-33 -22 -31 -58 5 -66 19 -4 33 -22 58 -70 27 -55
33 -81 41 -175 5 -60 12 -118 16 -127 5 -13 2 -18 -11 -18 -22 0 -7 -17 20
-22 17 -3 17 -6 -8 -35 -32 -38 -22 -48 38 -39 l42 7 0 -36 c0 -42 20 -68 34
-45 5 8 10 30 10 48 l0 32 99 0 c88 0 102 3 135 25 20 14 39 25 43 25 3 0 14
-12 26 -26 19 -24 25 -26 88 -22 55 3 73 8 94 28 60 56 68 105 29 162 -34 49
-22 68 45 68 72 0 137 -36 208 -118 78 -88 129 -114 219 -114 53 -1 77 6 131
32 71 35 178 133 228 209 15 22 31 41 36 41 4 0 13 -16 19 -35 9 -27 17 -35
35 -35 29 0 54 -34 100 -134 49 -107 61 -151 48 -179 -22 -45 -24 -62 -12
-134 9 -58 9 -76 -1 -88 -18 -21 -27 -19 -44 13 -15 26 -15 25 -14 -39 0 -53
-5 -78 -28 -125 -29 -58 -55 -76 -62 -41 -2 9 10 36 27 59 18 24 31 54 31 70
0 52 -62 148 -112 174 -39 20 -35 5 12 -41 52 -51 66 -97 42 -145 -9 -19 -25
-36 -34 -38 -10 -2 -38 16 -65 41 -66 61 -122 94 -193 114 -52 14 -70 15 -118
5 -30 -6 -73 -23 -94 -37 -45 -30 -39 -32 -125 48 -50 46 -102 74 -203 111
-25 9 -60 26 -79 38 -64 43 -76 48 -112 48 -20 0 -56 -9 -80 -20 -24 -11 -56
-20 -71 -20 -31 0 -82 -40 -100 -78 -7 -15 -28 -34 -46 -44 -51 -25 -71 -47
-83 -92 -6 -23 -24 -54 -39 -71 -35 -36 -50 -74 -50 -124 0 -24 -9 -49 -24
-70 -14 -19 -27 -54 -31 -84 -4 -29 -16 -72 -26 -96 -23 -53 -24 -102 -3 -142
12 -24 13 -37 5 -61 -14 -41 -14 -94 1 -121 7 -12 15 -55 18 -94 4 -43 13 -80
22 -90 8 -10 18 -43 21 -73 8 -65 33 -104 71 -108 22 -3 26 -7 20 -20 -28 -64
-8 -146 42 -173 17 -9 26 -24 31 -51 8 -52 41 -100 80 -117 20 -9 34 -24 38
-40 9 -38 26 -57 76 -83 27 -14 50 -36 61 -56 25 -50 46 -69 95 -86 24 -8 60
-29 79 -46 37 -32 62 -37 95 -19 14 7 30 7 53 -1 54 -17 83 -4 121 56 19 29
43 58 55 64 11 6 31 28 45 50 20 31 32 40 62 45 21 3 64 12 95 20 32 8 61 15
64 15 4 0 4 -36 2 -79 -4 -64 -10 -88 -30 -119 -33 -49 -85 -75 -135 -67 -38
6 -38 6 -13 -9 14 -8 42 -15 62 -16 47 0 99 43 136 114 23 44 27 63 26 133 0
45 3 80 8 77 24 -15 41 -76 46 -159 l4 -90 -35 -45 c-20 -24 -35 -46 -33 -48
2 -1 15 3 30 9 16 8 36 33 52 66 36 72 36 152 0 255 -25 74 -26 113 -2 105 42
-14 86 -237 63 -320 -14 -51 16 -25 35 29 9 27 20 48 25 47 4 -1 26 -9 48 -17
22 -8 49 -15 61 -16 47 -1 127 33 179 75 30 25 57 45 59 45 8 0 18 -79 12 -97
-3 -10 -31 -31 -61 -47 -67 -35 -142 -115 -180 -193 -56 -116 -13 -234 148
-398 53 -55 97 -103 97 -106 0 -4 -7 -12 -16 -19 -13 -11 -25 -4 -82 52 -121
119 -297 217 -426 238 -155 25 -235 -26 -342 -219 l-51 -91 -59 46 c-32 26
-74 53 -93 61 l-34 14 5 121 c6 133 -2 135 -27 8 -21 -105 -29 -120 -61 -120
-44 0 -64 17 -64 55 0 19 -4 35 -10 35 -5 0 -10 -15 -10 -34 0 -19 -7 -41 -15
-49 -25 -25 -105 -30 -179 -12 -37 9 -70 15 -72 12 -3 -3 3 -22 12 -43 25 -55
24 -59 -18 -56 -27 3 -38 0 -38 -10 0 -7 21 -56 46 -108 53 -109 91 -219 100
-291 7 -50 6 -51 -41 -99 l-48 -49 -10 -100 -10 -100 38 -128 c57 -191 111
-312 211 -469 29 -47 36 -52 78 -58 48 -8 57 -20 29 -41 -29 -21 -5 -35 64
-35 l65 0 -16 -25 c-30 -45 -15 -85 33 -85 23 0 24 0 6 20 -25 28 -16 32 38
16 68 -20 172 -99 224 -170 54 -73 94 -153 86 -173 -5 -13 -2 -13 15 -4 11 6
24 16 27 21 15 25 25 5 25 -50 0 -33 4 -60 10 -60 5 0 19 19 31 41 l21 41 32
-31 c17 -17 35 -31 39 -31 13 0 7 37 -8 50 -25 21 -17 46 30 89 77 71 85 71
163 18 86 -60 141 -79 224 -79 127 -1 246 83 293 205 9 25 15 55 13 68 -2 19
-9 11 -35 -44 -60 -126 -175 -221 -267 -219 -67 2 -150 38 -208 91 l-51 47 17
33 c12 23 22 31 34 27 9 -3 50 -17 90 -31 77 -27 134 -31 77 -5 -70 32 -155
85 -155 97 0 7 26 20 58 28 157 44 248 108 299 213 25 51 28 67 26 142 -2 71
2 97 25 157 14 40 30 73 34 73 4 0 24 -24 44 -54 34 -51 36 -58 29 -108 -4
-29 -18 -86 -32 -126 -39 -113 -24 -172 58 -232 78 -56 291 -109 388 -95 152
21 221 70 243 175 13 64 31 79 78 67 16 -4 22 2 30 31 5 21 10 42 10 49 0 19
22 63 32 63 4 0 8 -6 8 -14 0 -36 87 -292 131 -386 27 -58 49 -114 49 -125 0
-11 22 -56 50 -100 55 -88 60 -106 30 -98 -11 3 -20 2 -20 -1 0 -12 30 -66 81
-144 40 -60 47 -78 35 -80 -24 -5 -19 -25 14 -67 30 -38 70 -72 70 -60 0 3 -7
20 -17 38 -9 18 -18 47 -20 66 -2 18 -10 46 -18 62 -8 15 -15 40 -15 54 0 14
-16 60 -35 101 -19 41 -35 78 -35 83 0 5 -20 46 -44 92 -59 111 -163 369 -175
433 -5 28 -24 84 -41 125 -18 43 -28 77 -23 82 6 6 34 1 69 -11 157 -55 302
-3 365 131 16 36 28 49 39 45 8 -2 33 -12 55 -20 22 -8 73 -15 116 -16 119 0
203 51 261 163 60 113 -13 317 -162 450 -86 77 -336 187 -425 187 -37 0 -56
17 -34 31 8 5 33 9 55 9 51 0 122 24 146 49 9 11 43 25 74 31 82 17 190 56
227 81 76 53 113 133 104 229 -7 79 -31 125 -104 197 -157 155 -447 274 -632
261 -173 -13 -263 -107 -279 -294 -6 -62 -12 -88 -24 -95 -8 -5 -39 -26 -68
-48 -37 -28 -57 -37 -65 -31 -7 6 -15 43 -19 83 -4 39 -13 99 -21 132 -12 53
-12 75 1 181 15 119 15 122 -5 155 -12 19 -21 43 -21 55 0 11 -11 31 -25 44
-25 23 -32 40 -17 40 4 0 39 -23 77 -51 135 -98 247 -139 383 -139 141 0 188
33 233 162 l23 67 -22 70 c-29 90 -85 161 -168 214 -57 36 -64 44 -64 73 0 17
6 37 13 43 8 6 60 20 117 32 153 30 252 71 312 129 27 26 51 43 53 36 2 -6 6
-38 9 -72 4 -46 2 -66 -11 -83 -13 -19 -15 -39 -9 -108 6 -81 5 -85 -15 -90
-24 -7 -23 -16 8 -226 12 -81 13 -111 4 -120 -14 -14 -14 -129 0 -179 15 -58
30 -46 23 17 -5 43 -3 59 9 73 12 13 17 55 22 185 4 92 12 170 17 173 6 4 7
47 3 111 -6 84 -5 107 6 114 11 6 15 59 20 241 5 213 2 264 -17 245 -4 -4 -12
-60 -18 -124 -9 -93 -14 -118 -26 -118 -8 0 -13 7 -11 15 2 8 4 38 5 66 2 172
-259 397 -537 464 -115 28 -202 26 -279 -5 -70 -28 -78 -30 -78 -13 0 6 -10
22 -21 34 -20 21 -21 27 -10 69 14 55 8 79 -30 123 -16 18 -29 43 -29 57 0 30
-21 52 -61 60 -20 5 -38 18 -50 40 -25 42 -38 46 -103 39 -60 -7 -73 6 -55 53
13 34 4 76 -30 138 -23 40 -26 56 -19 80 13 46 -1 183 -29 279 -3 11 19 -2 60
-37 36 -31 76 -61 89 -68 13 -7 40 -23 60 -35 l37 -24 -31 -65 c-28 -61 -30
-73 -26 -149 5 -101 34 -158 104 -204 64 -43 136 -56 269 -49 290 16 544 163
600 347 27 88 30 89 33 8 5 -134 37 -82 48 78 6 82 5 96 -10 107 -14 11 -15
21 -6 87 10 80 8 375 -3 387 -4 3 -7 48 -7 99 0 51 -4 96 -10 99 -5 3 -10 36
-10 73 0 57 -2 64 -14 52 -16 -17 -43 -164 -53 -284 -5 -64 -3 -80 9 -87 12
-7 17 -37 22 -136 3 -71 9 -168 12 -218 l6 -90 -30 46 c-40 61 -95 105 -165
131 -33 12 -76 38 -98 59 -44 42 -131 89 -166 89 -41 0 -305 151 -290 166 1 1
27 -4 57 -12 33 -9 103 -15 175 -15 104 -1 131 3 201 26 217 72 304 240 214
415 -45 88 -137 145 -263 162 -146 20 -139 17 -172 84 -46 95 -78 129 -152
166 -62 30 -76 33 -158 33 -65 -1 -119 -9 -194 -28 -73 -20 -106 -24 -111 -17
-4 7 -10 53 -14 103 -4 51 -8 101 -9 112 -2 16 6 21 38 26 22 3 57 14 77 23
21 9 46 16 57 16 35 0 69 22 82 51 15 38 28 36 68 -5 59 -61 119 -80 251 -81
129 0 197 17 323 83 92 48 211 160 245 231 40 82 49 77 54 -33 3 -86 10 -117
22 -105 3 2 12 66 21 142 20 173 8 237 -28 150 -14 -36 -15 -29 -16 151 -1
183 -2 189 -20 172 -17 -16 -18 -14 -25 60 -3 42 -6 101 -6 131 0 38 -4 53
-14 53 -9 0 -15 19 -19 61 -3 34 -10 66 -16 72 -6 6 -11 39 -11 74 0 36 -4 63
-10 63 -19 0 -30 -50 -30 -130 0 -60 3 -79 15 -84 12 -4 15 -29 15 -139 0 -97
4 -145 15 -170 8 -21 15 -67 15 -106 0 -60 3 -72 20 -81 15 -8 20 -21 20 -50
0 -51 -12 -56 -39 -19 -57 76 -145 114 -356 149 -76 13 -142 31 -181 49 l-60
28 1 74 c1 85 -3 83 105 51 31 -9 93 -16 140 -16 141 -1 218 51 228 152 13
141 -87 267 -248 313 -59 16 -70 26 -70 60 0 68 -45 127 -125 165 -40 19 -67
24 -132 24 l-82 0 19 43 c30 65 26 108 -13 155 -19 22 -39 54 -46 71 -15 35
-39 45 -80 36 -25 -5 -33 -1 -56 29 -15 20 -33 36 -41 36 -18 0 -124 107 -124
125 0 8 -9 38 -21 67 -15 39 -18 58 -10 74 9 21 2 79 -14 104 -4 7 -11 49 -16
94 -4 44 -16 112 -25 150 -13 53 -14 73 -5 87 15 26 14 59 -8 174 -11 55 -25
158 -31 229 -11 130 -20 170 -34 147z m-946 -927 c14 -37 12 -71 -6 -100 -9
-13 -15 -26 -13 -29 3 -2 22 0 44 5 50 12 166 12 225 1 56 -11 80 -40 80 -95
0 -35 6 -48 36 -77 19 -18 55 -65 79 -104 50 -81 121 -222 115 -228 -3 -3 -39
-7 -80 -10 l-75 -6 -58 89 c-60 93 -140 171 -220 212 -34 18 -66 23 -169 27
-141 7 -164 16 -132 52 17 19 26 21 91 15 58 -5 72 -4 68 6 -7 19 -35 35 -83
48 -74 19 -138 92 -122 136 19 50 40 38 123 -70 15 -20 34 -36 42 -36 19 0 19
7 0 60 -18 51 -19 102 -3 118 20 20 48 14 58 -14z m-1023 -230 c3 -8 -6 -45
-20 -82 -75 -191 -110 -394 -110 -627 0 -258 41 -476 133 -699 22 -55 40 -101
40 -103 0 -13 -33 2 -59 26 -28 26 -31 35 -31 89 0 51 -3 60 -20 65 -28 7 -50
65 -49 126 1 37 -4 57 -20 77 -23 29 -28 83 -10 115 8 16 5 26 -15 50 -28 33
-31 55 -16 109 8 27 6 39 -6 58 -22 34 -20 85 7 128 21 34 21 38 6 64 -21 36
-22 92 -1 132 11 21 14 45 11 71 -4 31 0 52 19 89 19 37 22 53 14 68 -21 39
-12 72 31 111 24 22 36 40 30 44 -19 11 -12 55 14 80 28 29 43 31 52 9z m255
-35 c88 -14 102 -25 100 -80 -2 -24 4 -66 13 -94 28 -95 17 -99 -49 -16 -55
70 -100 101 -149 101 -49 0 -77 -36 -77 -99 0 -33 3 -42 10 -31 5 8 10 30 10
48 0 25 6 35 24 43 43 20 88 3 146 -56 30 -30 52 -57 49 -59 -3 -3 -27 1 -54
9 -116 35 -180 -44 -158 -194 9 -58 26 -74 31 -28 2 17 -4 37 -13 47 -39 43
20 150 82 150 44 0 103 -20 110 -36 3 -8 -3 -65 -12 -127 -21 -132 -24 -370
-6 -496 19 -130 57 -268 101 -361 34 -75 39 -96 43 -175 4 -106 22 -147 91
-215 25 -24 46 -49 46 -56 0 -19 -94 -101 -148 -128 l-50 -25 -72 66 c-160
149 -332 489 -390 772 -45 226 -49 498 -9 694 22 112 72 273 101 330 l19 38
72 -6 c40 -3 102 -11 139 -16z m1900 -16 c12 -11 18 -30 18 -60 0 -45 9 -53
30 -28 35 42 94 -19 73 -75 -14 -37 -2 -39 39 -5 16 14 36 25 43 25 17 0 45
-38 45 -61 0 -9 16 -26 35 -37 19 -12 37 -32 41 -46 9 -37 -4 -77 -26 -83 -16
-4 -20 -14 -20 -53 0 -30 -6 -52 -15 -60 -16 -13 -19 -38 -9 -64 9 -23 19 -20
32 9 14 31 51 33 78 4 18 -20 18 -21 -3 -59 -24 -45 -21 -53 14 -39 50 19 94
-41 59 -80 -23 -26 -20 -38 14 -50 26 -8 30 -15 30 -45 0 -29 -5 -38 -31 -51
-29 -16 -30 -17 -15 -40 9 -13 16 -33 16 -44 0 -11 12 -28 26 -39 34 -24 27
-63 -16 -89 -33 -19 -38 -34 -15 -53 35 -29 6 -100 -41 -100 -17 0 -25 -9 -34
-36 -11 -33 -14 -35 -44 -30 -28 5 -34 3 -44 -19 -23 -50 -16 -65 28 -65 44 0
51 -15 28 -65 -10 -22 -8 -28 10 -46 31 -29 28 -54 -23 -153 -35 -69 -45 -99
-45 -137 0 -47 -1 -48 -32 -51 -29 -3 -33 -7 -36 -36 -5 -47 -38 -67 -89 -53
-32 9 -40 8 -50 -7 -25 -35 -34 -42 -60 -42 -27 0 -27 -1 -3 70 21 58 25 63
65 75 106 31 178 94 201 173 20 67 14 130 -21 238 -14 42 -25 87 -25 101 0 36
32 90 100 168 127 146 117 245 -46 425 -105 117 -113 144 -88 297 10 66 -2
107 -52 162 -51 56 -136 104 -219 121 -59 12 -95 44 -95 84 0 22 17 46 32 46
4 0 23 -14 43 -31 33 -29 35 -30 35 -9 0 27 17 60 32 60 6 0 20 -7 30 -17z
m-1688 -94 c47 -52 63 -87 52 -114 -8 -22 -88 -20 -109 3 -33 36 -35 162 -3
162 8 0 35 -23 60 -51z m654 -19 c91 -41 227 -206 286 -346 14 -34 33 -101 42
-149 15 -76 16 -102 6 -189 -21 -193 -101 -402 -207 -543 -72 -95 -84 -101
-114 -58 -22 32 -56 53 -67 42 -3 -3 5 -25 17 -49 29 -57 30 -138 2 -193 -34
-66 -78 -97 -192 -137 l-56 -19 -43 47 c-24 26 -52 65 -63 86 -25 50 -39 48
-39 -5 0 -24 -3 -46 -6 -50 -9 -9 -100 60 -139 106 -93 108 -64 194 101 301
l41 27 34 -20 c49 -28 79 -35 79 -19 0 7 -34 52 -75 98 -103 116 -132 159
-116 169 7 5 51 11 97 14 88 5 167 34 188 70 18 28 -12 69 -73 100 -65 32
-171 38 -209 11 -27 -18 -29 -64 -6 -99 15 -24 15 -25 -2 -25 -31 0 -117 55
-158 100 -74 82 -78 127 -17 184 36 34 39 46 12 46 -27 0 -38 18 -50 84 -12
64 -15 234 -5 260 6 17 50 22 71 8 6 -4 11 -28 10 -57 -2 -36 4 -57 18 -77 32
-43 48 -44 30 -1 -28 67 -16 111 38 140 49 27 212 24 291 -5 33 -12 68 -30 79
-40 18 -16 19 -16 16 3 -4 17 -69 75 -101 88 -15 7 61 79 107 102 42 20 122
18 173 -5z m963 -66 c97 -28 185 -88 216 -148 12 -23 14 -51 8 -140 -8 -137
-1 -161 81 -258 85 -101 121 -157 135 -210 11 -40 10 -49 -13 -99 -14 -30 -53
-85 -88 -123 -64 -71 -90 -117 -90 -161 0 -14 14 -68 31 -121 26 -79 31 -106
26 -154 -9 -107 -65 -171 -160 -187 -32 -5 -37 -2 -71 43 -24 31 -65 66 -112
94 -69 41 -80 54 -138 144 l-63 98 43 65 c24 37 45 71 48 77 3 6 15 -2 28 -19
67 -86 172 -207 190 -216 49 -26 32 12 -37 84 -98 104 -155 189 -155 234 l0
35 73 -65 c88 -78 165 -137 179 -137 6 0 -46 58 -116 130 l-126 129 0 80 c0
75 1 81 23 86 42 9 178 25 225 26 l47 1 -50 9 c-30 5 -90 5 -149 -1 -55 -6
-101 -8 -104 -6 -2 3 17 18 43 33 103 61 135 83 135 93 0 18 -28 10 -106 -30
-43 -22 -79 -40 -81 -40 -1 0 -12 18 -23 40 -34 66 -28 87 48 170 47 53 57 68
33 51 -18 -13 -52 -41 -74 -63 -22 -21 -41 -38 -43 -38 -1 0 1 12 5 28 13 45
56 124 100 182 40 54 51 80 31 80 -14 0 -97 -115 -131 -182 -43 -84 -49 -82
-49 20 0 132 38 264 102 355 23 32 49 34 129 11z m-530 -329 c28 -24 56 -42
61 -39 14 9 9 30 -13 58 -20 26 -20 26 0 26 26 0 62 -51 68 -99 5 -36 3 -39
-33 -57 -61 -30 -40 -39 79 -36 l108 3 35 -76 c71 -154 91 -308 59 -459 -20
-94 -74 -200 -92 -182 -5 4 -7 51 -6 104 2 87 0 100 -25 145 -34 64 -84 97
-156 104 -73 8 -74 -9 -3 -41 91 -40 148 -117 135 -183 -2 -10 -10 -18 -18
-18 -11 0 -14 9 -12 35 l3 35 -21 -25 c-11 -14 -25 -31 -30 -37 -6 -7 -17 -13
-25 -13 -12 0 -15 15 -15 69 0 47 -4 72 -14 80 -21 17 -27 2 -37 -88 -7 -66
-12 -79 -36 -98 -15 -13 -31 -23 -34 -23 -3 0 -27 16 -52 36 -80 63 -107 19
-37 -61 43 -49 44 -65 4 -65 -29 0 -31 -15 -4 -30 29 -15 15 -30 -27 -30 -28
0 -42 8 -69 37 -19 20 -34 43 -34 50 0 7 26 66 59 131 32 64 66 139 76 165 12
32 32 60 58 80 22 18 60 50 85 73 l45 41 -46 43 c-26 23 -47 46 -47 51 0 5 13
15 29 24 74 38 72 61 -7 118 -44 31 -51 41 -67 100 -15 57 -16 97 -1 97 2 0
28 -20 57 -45z m1117 21 c89 -46 110 -141 61 -269 -23 -57 -23 -57 -5 -57 8 0
26 14 40 32 32 42 43 21 21 -41 -18 -52 -18 -51 -4 -51 16 0 39 66 39 115 0
41 2 45 23 45 40 0 143 -58 185 -104 61 -67 76 -137 42 -194 -31 -51 -76 -64
-194 -60 -117 4 -153 18 -178 67 -9 18 -29 46 -44 62 l-26 28 23 56 c21 50 22
59 10 88 -7 18 -18 50 -23 72 -17 66 -36 103 -56 109 -12 4 -22 19 -25 39 -4
17 -9 42 -13 55 -6 21 -4 22 45 22 29 0 64 -6 79 -14z m-2243 -501 c18 -27 75
-96 129 -152 57 -60 91 -103 84 -106 -58 -20 -288 259 -288 349 l0 29 22 -35
c11 -19 35 -57 53 -85z m2313 -345 c35 -11 118 -30 185 -41 67 -12 144 -29
172 -40 50 -19 125 -72 125 -90 0 -5 -24 -9 -53 -9 -142 0 -329 -81 -426 -186
-77 -82 -95 -141 -66 -216 11 -28 -72 -25 -115 5 -163 111 -14 380 245 444 59
14 65 18 44 26 -37 14 -109 0 -195 -37 l-78 -34 -16 26 c-9 15 -20 59 -23 99
-7 67 -5 73 18 102 l26 30 47 -29 c26 -16 75 -38 110 -50z m-937 -112 c62 -89
90 -141 81 -154 -4 -5 -19 -15 -34 -21 -37 -17 -116 -90 -134 -125 -14 -27
-34 -38 -34 -18 0 5 -19 36 -43 69 -24 32 -59 88 -77 123 l-34 65 24 38 c32
52 103 95 157 95 41 0 44 -2 94 -72z m-495 -29 c39 -38 49 -43 106 -48 l62 -6
44 -80 c24 -44 69 -113 99 -152 30 -40 53 -77 51 -82 -1 -5 -45 -62 -97 -125
-66 -81 -106 -121 -132 -133 -21 -9 -40 -25 -43 -37 -3 -12 -22 -30 -43 -41
-30 -16 -39 -27 -43 -54 -6 -43 -27 -51 -36 -14 -32 131 -143 232 -295 267
-33 8 -62 16 -64 18 -1 2 -7 30 -12 63 -6 33 -13 68 -18 77 -6 15 7 24 71 53
43 20 97 51 120 70 42 34 94 122 94 157 0 17 75 108 88 108 4 0 25 -19 48 -41z
m1844 -78 c0 -19 -330 -172 -368 -171 -26 1 52 66 123 103 106 54 245 92 245
68z m77 -36 c-53 -47 -269 -163 -432 -231 -84 -36 -109 -41 -103 -22 10 29 88
74 298 172 229 108 292 129 237 81z m23 -54 c0 -19 -91 -88 -176 -133 -77 -40
-271 -121 -342 -143 -19 -5 -23 -3 -20 10 3 19 36 37 238 134 80 39 174 86
210 105 66 36 90 43 90 27z m-1396 -47 l-7 -36 54 30 c30 16 68 32 84 36 33 6
35 9 -38 -39 -36 -23 -51 -53 -21 -40 57 24 99 36 118 33 16 -3 10 -10 -31
-31 -52 -27 -70 -43 -59 -54 3 -3 24 2 48 12 68 28 94 33 109 24 11 -6 9 -10
-7 -16 -52 -20 -197 -153 -231 -211 -23 -39 -25 -48 -15 -80 11 -34 9 -41 -21
-91 -42 -71 -128 -161 -153 -161 -10 0 -34 8 -51 18 -44 24 -133 108 -133 125
0 18 126 185 185 247 31 32 47 59 56 95 17 71 43 119 81 149 18 14 34 26 36
26 2 0 0 -16 -4 -36z m-1209 -13 c9 -29 45 -72 56 -66 5 4 9 16 9 28 l0 21 16
-22 c8 -12 21 -22 29 -22 37 0 126 -148 111 -185 -3 -9 -34 -28 -69 -44 -77
-35 -150 -111 -171 -179 -10 -35 -31 -65 -80 -115 -141 -143 -214 -265 -238
-397 -6 -30 -23 -98 -39 -150 -22 -72 -29 -115 -29 -177 0 -79 -2 -85 -35
-128 -68 -90 -59 -222 17 -247 8 -3 6 -18 -7 -51 -30 -80 3 -160 73 -173 63
-11 67 -18 31 -49 -31 -26 -38 -27 -99 -21 -36 3 -87 6 -115 6 l-50 1 30 24
c37 31 23 45 -38 38 l-42 -5 0 145 0 144 -37 72 c-27 50 -33 71 -23 71 22 0
28 20 11 39 -20 22 -20 31 0 31 13 0 12 5 -6 28 -56 73 -55 69 -31 120 23 51
46 145 56 233 8 64 -6 130 -37 173 l-21 29 29 -6 c16 -3 39 -8 52 -12 43 -14
12 23 -41 49 l-52 25 38 1 c21 0 47 -5 57 -10 29 -15 31 2 6 44 l-23 39 61 61
c73 73 125 172 133 252 3 30 10 57 14 60 5 3 20 -3 34 -12 24 -16 25 -16 25 8
0 13 -11 40 -25 61 -33 47 -21 47 27 0 52 -51 59 -38 24 48 -6 13 3 17 54 22
123 11 309 131 298 191 -6 30 8 35 17 7z m1471 -412 c-4 -29 -1 -61 8 -88 15
-40 13 -71 -4 -71 -4 0 -18 12 -31 26 -72 80 -65 76 -106 59 -20 -9 -44 -22
-53 -29 -23 -21 -81 -48 -88 -42 -3 3 13 27 35 53 39 47 42 48 107 53 79 6 99
23 111 92 6 41 7 42 17 18 5 -14 7 -46 4 -71z m-1060 52 c74 -35 129 -97 149
-166 20 -69 8 -116 -44 -169 -23 -23 -41 -45 -41 -49 0 -21 53 -2 93 33 l46
40 41 -57 c51 -72 161 -287 190 -373 31 -92 39 -261 16 -362 -31 -137 -131
-311 -224 -385 -91 -74 -196 -102 -258 -70 -32 17 -124 110 -124 126 0 5 37
21 83 35 45 14 91 32 102 41 19 15 18 16 -20 9 -141 -26 -209 -20 -301 26 -69
34 -124 91 -124 129 0 13 9 39 21 57 23 39 13 45 -18 12 -51 -57 -54 -87 -13
-151 36 -56 36 -57 10 -57 -11 0 -20 4 -20 10 0 5 -16 28 -35 49 l-36 39 22
41 c46 89 32 173 -36 205 l-37 18 9 86 c10 110 10 178 0 219 -7 27 -5 34 16
48 23 15 28 15 62 1 56 -24 114 -20 149 8 23 18 31 34 35 71 6 44 10 51 46 69
37 19 40 25 40 61 0 38 -2 41 -54 67 -69 35 -90 54 -112 103 -25 53 -24 72 7
133 43 86 122 130 234 131 52 1 77 -5 126 -28z m587 -280 c72 -31 76 -35 55
-45 -13 -6 -38 -34 -56 -61 -19 -28 -37 -51 -42 -53 -14 -5 -146 202 -164 256
-27 81 -11 83 63 6 53 -56 81 -76 144 -103z m916 92 c62 -20 134 -80 163 -137
46 -91 10 -239 -71 -290 -23 -15 -41 -30 -41 -35 0 -14 -32 -24 -90 -27 -30
-2 -66 -4 -80 -6 -19 -2 -25 2 -25 17 0 14 8 21 25 23 33 5 54 22 41 35 -6 6
-21 3 -42 -7 -18 -9 -34 -15 -36 -13 -1 2 -7 31 -11 65 -5 34 -12 65 -15 69
-17 17 -19 -15 -7 -107 7 -56 10 -103 7 -106 -2 -3 -16 1 -30 7 -28 13 -40 36
-58 114 -16 66 -81 226 -108 263 -12 17 -21 37 -21 45 0 19 97 61 190 82 41 9
80 18 85 20 26 8 77 4 124 -12z m-1159 -28 c6 -19 49 -91 96 -161 94 -143 101
-170 63 -254 l-20 -45 -67 130 c-37 72 -84 158 -106 192 l-39 63 24 55 c13 30
27 55 31 55 3 0 12 -16 18 -35z m690 -82 c146 -222 191 -442 135 -664 -20 -79
-112 -271 -156 -322 l-32 -38 -31 37 c-48 57 -66 95 -66 140 0 105 -70 204
-171 242 -40 14 -55 25 -57 41 -5 32 13 48 73 66 92 26 137 103 152 257 4 49
2 72 -7 83 -12 14 -16 14 -34 -8 -17 -20 -36 -27 -101 -36 -44 -5 -99 -16
-123 -23 -37 -11 -44 -10 -52 2 -13 21 -12 60 1 60 19 0 118 90 146 130 17 27
41 45 82 63 32 14 80 39 107 55 26 17 52 28 56 26 5 -3 39 -53 78 -111z
m-1455 56 c37 -71 118 -139 165 -139 11 0 23 -7 27 -17 10 -26 -32 -53 -83
-53 -24 0 -44 -2 -44 -5 0 -3 10 -19 21 -35 20 -26 21 -32 9 -60 -13 -32 -54
-60 -88 -60 -24 0 -72 37 -72 55 0 7 -6 18 -14 24 -11 10 -16 8 -21 -8 -9 -30
-53 -61 -86 -61 -34 0 -37 -10 -9 -35 11 -10 24 -34 30 -54 15 -53 12 -179 -5
-244 -20 -76 -19 -77 11 -77 15 0 38 -12 56 -30 28 -28 30 -36 26 -80 -3 -27
-12 -59 -21 -72 -9 -13 -24 -33 -32 -44 -15 -21 -14 -23 18 -43 19 -12 41 -35
48 -53 11 -28 10 -35 -9 -69 -19 -33 -20 -38 -6 -50 27 -22 46 -69 39 -98 -11
-53 -76 -92 -115 -71 -28 15 -60 69 -60 102 0 37 -15 43 -49 17 -24 -17 -34
-20 -58 -12 -33 11 -73 66 -73 100 0 28 22 74 44 92 24 20 19 31 -14 31 -32 0
-67 31 -76 67 -18 71 36 153 100 153 42 0 43 6 15 61 -33 65 -34 122 -4 219
14 47 35 117 45 156 23 90 70 192 117 258 48 67 134 166 144 166 5 0 16 -14
24 -31z m2179 -272 c-1 -163 -93 -256 -259 -264 -80 -4 -114 5 -101 26 4 6 53
25 109 42 81 25 109 39 138 68 34 35 79 131 79 171 0 10 3 26 6 35 14 35 29
-7 28 -78z m109 -42 c-4 -65 -3 -95 5 -95 14 0 19 19 31 104 5 37 12 71 15 74
11 10 84 -18 133 -51 55 -37 103 -118 103 -175 0 -106 -135 -217 -305 -252
-143 -30 -399 19 -439 83 -15 25 3 33 86 41 145 15 221 54 289 151 34 49 42
69 46 120 6 62 17 95 33 95 6 0 7 -38 3 -95z m-1029 25 c14 -14 -11 -116 -40
-167 -30 -52 -94 -86 -154 -81 l-42 3 61 50 c83 68 92 93 28 81 -19 -3 -57
-26 -86 -51 -29 -25 -56 -45 -61 -45 -15 0 -20 33 -10 71 20 75 93 132 189
149 51 9 100 5 115 -10z m496 -329 c0 -5 -11 -34 -25 -65 -25 -57 -33 -116
-16 -116 13 0 23 17 42 70 9 25 22 46 30 48 8 1 32 -20 53 -48 42 -55 134
-129 208 -166 25 -13 49 -28 52 -33 10 -15 -22 -21 -34 -5 -14 16 -70 19 -70
4 0 -5 6 -10 14 -10 35 0 23 -22 -28 -55 -61 -39 -108 -82 -178 -163 l-45 -53
-38 15 c-48 20 -174 123 -187 152 -9 18 -1 42 40 131 48 104 69 162 92 250 6
25 17 43 28 46 30 8 62 7 62 -2z m-760 -108 c32 -86 66 -135 93 -131 45 6 27
79 -36 146 l-31 32 30 0 c43 0 128 -45 165 -88 60 -68 87 -164 57 -205 -12
-16 -20 -15 -113 16 -173 59 -181 66 -205 196 -19 105 6 126 40 34z m48 -233
c37 -17 57 -40 33 -40 -5 0 -31 -19 -57 -43 -86 -74 -79 -73 -104 -26 -26 52
-21 80 22 108 40 25 52 26 106 1z m1233 -27 c27 -14 49 -32 49 -38 0 -7 -35
-19 -87 -29 -117 -23 -202 -51 -295 -97 -43 -22 -81 -39 -85 -39 -13 0 91 101
137 133 79 55 164 97 199 97 18 0 55 -12 82 -27z m-1068 -31 c36 -39 81 -156
82 -209 l0 -53 34 0 c42 0 112 -32 129 -60 18 -29 -5 -27 -48 5 -19 14 -44 25
-56 25 -26 0 -84 -45 -84 -65 0 -8 36 -42 80 -76 89 -68 99 -89 45 -89 -47 0
-44 -13 8 -39 l42 -21 -47 0 c-34 0 -48 -4 -48 -14 0 -18 22 -26 69 -26 44 0
55 -8 40 -27 -20 -23 -107 -16 -156 13 -41 24 -44 28 -37 57 19 83 -15 138
-93 150 -37 6 -41 10 -48 44 -4 21 -15 49 -25 63 -9 14 -39 68 -65 120 l-47
95 50 46 c44 41 110 76 148 78 6 1 18 -7 27 -17z m157 -84 c38 -22 40 -22 69
-5 29 17 30 17 40 -1 12 -22 27 -104 20 -112 -2 -2 -12 -3 -21 -2 -22 4 -22 1
-4 -43 15 -35 8 -47 -13 -21 -6 7 -31 21 -55 30 -45 17 -56 31 -81 105 -27 78
-19 86 45 49z m1127 -11 c45 -24 127 -102 120 -114 -4 -6 -41 -11 -84 -11
-185 -1 -478 -147 -564 -280 -29 -44 -30 -51 -26 -120 l6 -73 -32 6 c-58 12
-120 57 -145 105 -19 37 -23 56 -19 105 6 82 32 129 116 208 98 92 239 158
399 187 67 13 194 5 229 -13z m-7 -194 c-137 -64 -412 -174 -419 -167 -8 8 63
69 116 99 105 58 249 104 328 104 l50 -1 -75 -35z m140 8 c0 -32 -214 -152
-394 -220 -95 -36 -245 -75 -254 -66 -12 12 35 80 59 87 13 3 49 12 79 19 66
14 275 95 385 148 78 38 125 50 125 32z m-14 -115 c-38 -59 -226 -160 -408
-221 -139 -46 -205 -57 -224 -38 -32 32 -14 45 117 84 171 51 401 151 489 212
33 24 35 24 38 5 2 -10 -3 -30 -12 -42z m-1393 -108 c29 -39 17 -58 -38 -58
-25 0 -45 -4 -45 -10 0 -5 21 -20 46 -31 28 -14 56 -37 71 -61 22 -33 31 -38
64 -38 66 0 84 -16 55 -49 -7 -9 -21 -43 -31 -75 -19 -66 -89 -234 -104 -249
-7 -7 -29 8 -68 43 -60 55 -122 89 -160 90 -14 0 -23 6 -23 15 0 9 30 70 67
136 l66 121 -22 63 c-21 59 -21 65 -7 93 26 50 96 55 129 10z m-1152 -48 c70
-21 142 -66 202 -125 61 -60 41 -81 -79 -84 -114 -2 -240 -62 -309 -146 -20
-25 -43 -45 -50 -45 -23 0 -45 55 -45 110 0 44 5 56 29 81 18 17 40 29 56 29
15 0 24 4 20 10 -18 30 -104 -9 -130 -59 -21 -42 -19 -78 10 -139 15 -33 20
-52 12 -50 -6 2 -37 12 -68 22 -66 22 -101 16 -117 -19 -15 -32 -16 -75 -2
-75 6 0 10 8 10 18 0 10 7 28 16 40 18 26 67 29 120 7 37 -15 38 -35 1 -35
-12 0 -37 -9 -54 -20 -31 -18 -33 -24 -33 -73 0 -53 25 -117 49 -125 6 -2 3
11 -9 30 -28 46 -27 112 3 142 21 21 93 44 103 33 3 -3 0 -25 -7 -51 -7 -30
-10 -104 -7 -213 4 -155 7 -175 37 -265 43 -132 72 -194 136 -295 48 -76 55
-93 55 -137 0 -140 80 -235 253 -298 31 -11 57 -24 57 -28 0 -4 -20 -26 -44
-48 -86 -79 -162 -91 -260 -42 -163 83 -338 281 -446 505 -107 222 -150 385
-150 573 0 283 84 515 245 677 44 45 96 89 115 98 51 24 199 23 281 -3z m1509
-151 l11 -20 26 21 c14 11 33 20 41 20 26 0 52 -31 52 -62 0 -27 2 -29 33 -23
27 5 40 2 63 -18 26 -23 27 -27 17 -61 -9 -30 -9 -36 3 -36 24 0 71 -28 78
-46 6 -17 -29 -84 -44 -84 -5 0 -33 35 -62 77 -61 88 -140 152 -221 179 -79
26 -95 45 -61 78 18 19 47 8 64 -25z m-929 -15 c146 -74 267 -265 305 -485 29
-166 6 -307 -76 -474 -49 -98 -169 -265 -192 -265 -6 0 -29 19 -51 43 -40 42
-60 40 -36 -4 18 -34 39 -119 39 -159 0 -94 -133 -190 -265 -190 -147 0 -284
113 -293 242 -4 57 -4 59 39 102 29 28 60 48 87 56 49 13 52 33 4 38 -34 3
-30 -8 -47 136 l-6 43 73 5 c40 3 86 12 103 20 29 16 27 16 -57 15 -77 -1 -92
2 -149 31 -97 47 -189 155 -189 220 0 35 27 79 60 99 34 20 36 25 14 44 -16
14 -82 107 -103 146 -10 20 -7 25 50 58 l62 36 26 -25 c32 -31 46 -34 31 -7
-18 35 -12 80 15 107 87 87 289 97 394 20 19 -14 37 -23 40 -20 10 10 -68 72
-115 91 -24 10 -44 21 -44 24 0 7 86 63 110 72 41 15 122 6 171 -19z m808
-119 c13 -31 31 -60 41 -65 27 -14 63 3 95 44 15 20 32 36 37 36 19 0 114
-100 146 -154 43 -71 45 -112 8 -157 -24 -29 -27 -39 -22 -76 5 -37 3 -44 -17
-54 -12 -6 -37 -25 -54 -42 -39 -37 -41 -63 -10 -127 19 -38 27 -46 54 -48 22
-2 38 3 53 18 12 12 27 20 33 17 17 -6 132 -240 151 -306 9 -30 16 -79 16
-109 l0 -55 -46 7 c-25 3 -54 1 -65 -4 -16 -9 -22 -4 -44 30 -14 23 -33 44
-42 47 -14 6 -124 -10 -156 -23 -10 -4 -16 6 -21 35 -3 24 -18 54 -35 73 -23
26 -35 31 -67 30 -58 -2 -88 -40 -82 -103 5 -51 -4 -63 -33 -48 -16 8 -15 15
7 84 13 42 24 83 24 93 1 39 14 43 76 22 121 -43 242 -61 172 -26 -32 16 -37
75 -9 100 20 18 20 19 -20 52 -54 45 -73 49 -115 25 -46 -27 -70 -26 -90 4
-23 35 -31 105 -12 105 8 0 19 -5 25 -11 6 -6 28 -9 49 -7 35 3 41 8 62 48 24
47 26 81 5 88 -9 2 -13 -7 -13 -28 0 -20 -9 -40 -25 -55 -28 -29 -47 -31 -65
-10 -19 23 8 56 93 116 l72 51 -60 -7 c-87 -10 -87 -10 -118 -66 -16 -28 -31
-48 -34 -46 -5 6 50 116 84 168 14 21 23 44 20 51 -7 20 -67 -51 -107 -126
-19 -36 -38 -66 -42 -66 -4 0 -14 13 -22 28 -8 16 -22 34 -30 41 -12 10 -14
24 -10 55 4 22 8 42 9 44 1 1 16 -5 32 -15 63 -36 123 27 107 111 -3 21 -23
55 -47 82 l-40 46 22 69 c12 38 26 69 30 69 4 0 18 -25 30 -55z m438 -237 c29
-28 29 -39 -3 -78 -23 -27 -25 -34 -15 -56 16 -36 14 -99 -4 -114 -21 -18 -19
-33 11 -61 34 -32 84 -118 84 -146 0 -17 12 -28 48 -45 43 -21 47 -26 46 -58
-1 -19 -5 -45 -9 -57 -5 -17 -3 -23 8 -23 21 0 57 -47 57 -74 0 -36 -29 -68
-58 -64 -24 3 -29 10 -47 83 -25 93 -49 151 -139 333 -80 164 -88 203 -52 272
14 27 26 63 26 80 0 35 15 38 47 8z m246 -60 c-29 -118 31 -212 211 -329 122
-80 240 -122 326 -117 36 2 73 8 83 12 18 8 17 6 -2 -32 -37 -73 -86 -97 -310
-153 -142 -35 -235 -71 -303 -115 -38 -25 -46 -11 -20 35 28 50 28 71 -5 129
-43 78 -32 86 78 51 51 -17 104 -29 118 -27 49 6 27 30 -52 58 -138 49 -233
129 -288 245 -53 110 -33 199 56 247 28 15 65 28 83 28 33 0 33 -1 25 -32z
m222 -70 c216 -71 431 -194 398 -228 -9 -10 -39 0 -134 45 -139 65 -230 104
-343 146 -98 36 -127 54 -120 74 8 20 46 13 199 -37z m-35 -85 c190 -70 440
-192 440 -213 0 -19 -39 -10 -157 35 -269 104 -373 155 -418 205 l-20 23 30
-7 c17 -4 73 -23 125 -43z m173 -162 c195 -82 205 -87 194 -97 -14 -14 -147
22 -226 62 -94 47 -195 114 -171 114 8 0 100 -36 203 -79z m-1162 -26 c-25
-29 -31 -45 -31 -81 0 -60 23 -112 55 -124 20 -7 25 -16 25 -42 0 -18 -5 -40
-10 -48 -8 -12 -14 -10 -38 13 -41 39 -75 36 -123 -13 -22 -22 -46 -40 -53
-40 -8 0 -35 22 -61 49 -25 26 -57 54 -71 61 -32 17 -30 25 7 40 28 12 36 11
73 -9 53 -30 84 -25 113 18 32 48 30 86 -8 123 -28 28 -34 30 -80 25 -27 -3
-49 -2 -49 2 0 5 16 21 35 35 19 15 35 34 35 42 0 23 25 27 59 10 41 -22 61
-20 101 8 l35 24 9 -29 c7 -24 4 -33 -23 -64z m-23 -389 c31 -16 59 -45 64
-66 2 -11 -5 -14 -29 -12 -43 4 -50 -14 -13 -33 38 -20 38 -35 0 -35 -16 0
-30 -2 -30 -5 0 -3 18 -23 40 -44 28 -27 40 -46 40 -66 l0 -29 -35 34 c-27 26
-38 31 -47 22 -9 -9 -7 -17 9 -34 53 -59 59 -131 9 -112 -8 3 -25 25 -36 49
l-21 44 -42 -20 c-23 -10 -57 -19 -74 -19 -26 0 -33 -4 -33 -20 0 -51 -134
-150 -203 -150 -39 0 -79 43 -105 113 -29 77 -29 121 3 152 13 14 32 25 41 25
28 0 154 82 206 133 27 27 68 57 91 67 50 23 127 26 165 6z m506 -80 c34 -75
64 -106 101 -106 38 0 87 70 100 143 8 43 18 46 41 12 20 -30 13 -63 -20 -101
-20 -24 -22 -32 -13 -60 8 -26 7 -38 -7 -58 -17 -27 -40 -34 -51 -16 -14 22
-35 10 -35 -20 0 -23 -5 -30 -19 -30 -24 0 -37 17 -44 60 -3 25 -21 52 -62 94
-53 54 -56 60 -44 82 36 68 -37 13 -94 -70 -12 -17 -27 -26 -45 -26 -15 0 -37
-7 -49 -15 -19 -14 -26 -12 -80 20 -78 48 -97 67 -88 94 9 29 20 26 35 -9 21
-50 93 -76 131 -47 9 7 23 26 32 42 9 17 20 36 25 43 12 18 79 41 120 42 31 0
34 -4 66 -74z m430 32 c-9 -17 -36 -52 -60 -78 -24 -26 -44 -50 -44 -53 0 -9
29 3 72 30 40 24 58 29 58 14 0 -7 -47 -79 -100 -153 -14 -20 -13 -21 7 -10
20 11 105 129 119 165 5 15 9 15 36 1 46 -24 116 -93 146 -143 36 -62 36 -130
-1 -194 -36 -61 -69 -77 -154 -77 -126 0 -285 59 -374 139 -53 47 -49 62 26
101 57 30 85 70 85 121 0 41 6 47 106 119 83 59 101 63 78 18z m-493 -112 c8
-17 8 -29 -1 -46 -10 -18 -9 -28 6 -55 23 -44 13 -83 -26 -97 -28 -9 -43 -38
-20 -38 17 0 11 -46 -8 -63 -26 -24 -32 -13 -32 63 0 108 36 260 61 260 5 0
14 -11 20 -24z m-336 -417 c16 -8 31 -22 33 -32 3 -15 -5 -16 -100 -11 -84 6
-114 3 -155 -10 -66 -22 -135 -83 -167 -148 -30 -59 -33 -100 -11 -151 30 -72
-9 -91 -52 -26 -68 103 8 273 156 348 96 50 229 63 296 30z m265 -225 c0 -6
-44 -44 -97 -85 -54 -41 -165 -129 -247 -196 -83 -68 -155 -123 -161 -123 -15
0 -156 151 -152 164 5 16 285 256 401 343 l101 76 77 -84 c43 -46 78 -89 78
-95z m710 74 c-40 -66 -22 -162 45 -244 115 -140 326 -249 508 -261 l88 -6
-21 -22 c-12 -13 -49 -36 -83 -51 -58 -27 -70 -29 -197 -29 l-135 0 -85 41
c-114 55 -201 122 -271 211 -68 85 -73 102 -66 189 5 72 29 117 83 153 33 23
104 49 136 50 16 1 16 -2 -2 -31z m242 -4 c116 -37 321 -144 305 -160 -2 -3
-64 18 -138 45 -74 27 -183 61 -244 76 -117 29 -140 40 -115 55 27 17 108 10
192 -16z m-8 -90 c107 -31 291 -101 363 -138 57 -28 105 -79 80 -84 -8 -2 -59
15 -113 36 -105 42 -372 129 -489 159 -49 13 -71 23 -73 36 -8 41 70 38 232
-9z m-842 -104 c20 -41 33 -78 29 -83 -4 -4 -83 -54 -177 -110 -93 -57 -192
-118 -221 -136 -56 -36 -53 -36 -136 16 l-38 24 68 56 c98 80 310 245 363 282
25 17 52 30 60 28 8 -1 32 -36 52 -77z m791 10 c221 -57 491 -162 503 -195 4
-9 0 -23 -8 -31 -12 -12 -25 -11 -98 11 -133 38 -388 132 -459 167 -71 36
-110 78 -73 78 11 0 72 -13 135 -30z m164 -164 c98 -35 196 -71 218 -81 37
-16 39 -18 19 -27 -31 -14 -173 15 -253 52 -61 29 -191 108 -191 116 0 11 44
-2 207 -60z m-2010 4 c112 -39 203 -100 314 -210 232 -230 310 -464 264 -785
-28 -200 -60 -315 -88 -315 -7 0 -35 14 -61 30 -27 17 -62 34 -80 37 l-31 6
19 -21 c10 -12 43 -41 73 -64 94 -72 114 -142 67 -237 -53 -106 -216 -190
-346 -178 -75 7 -179 56 -210 99 -32 46 -36 128 -9 196 17 42 18 52 7 52 -20
0 -51 -42 -72 -96 -9 -24 -20 -44 -24 -44 -16 0 -141 142 -204 233 -62 89
-110 177 -101 185 2 2 16 -5 32 -16 43 -30 120 -53 200 -59 67 -5 78 -3 137
26 69 34 146 108 146 141 0 26 -21 16 -65 -30 -123 -131 -393 -107 -471 42
-18 34 -17 86 1 118 16 29 19 50 6 50 -5 0 -21 -25 -37 -55 -16 -30 -32 -55
-35 -55 -7 0 -61 179 -79 260 -5 25 -10 64 -10 87 l0 42 50 -25 c57 -28 89
-28 44 0 -43 27 -64 57 -64 92 0 63 92 169 195 222 37 18 70 27 128 30 42 2
77 8 77 12 0 10 -89 30 -131 30 l-29 0 29 59 c81 160 186 202 358 141z m1166
-28 c31 -32 57 -63 57 -69 0 -6 -15 -20 -32 -31 -41 -25 -535 -272 -544 -272
-15 0 5 143 23 162 38 42 399 268 428 268 6 0 36 -26 68 -58z m-1904 -119 c18
-16 22 -33 27 -134 7 -121 -2 -173 -24 -133 -13 25 -52 205 -52 242 0 46 15
53 49 25z m2029 -70 c27 -107 27 -99 -1 -117 -41 -28 -501 -196 -518 -191 -25
8 -92 86 -82 96 8 8 564 298 573 299 3 0 15 -39 28 -87z m-2124 59 c3 -5 14
-55 26 -113 55 -274 175 -650 265 -829 77 -154 200 -330 325 -465 30 -33 72
-90 93 -125 22 -36 69 -105 105 -154 l66 -89 -29 -23 c-16 -13 -44 -31 -63
-41 -27 -15 -34 -16 -41 -4 -10 15 -15 10 -43 -49 l-16 -35 -1 49 -1 50 -33
-32 -32 -31 -39 75 c-67 130 -166 221 -281 261 l-48 16 32 16 c42 22 30 31
-41 31 -61 0 -71 13 -19 25 16 3 37 15 47 26 18 20 18 20 -11 13 -17 -5 -46
-9 -65 -9 -43 0 -60 28 -60 105 0 125 -60 262 -166 379 -35 40 -64 76 -64 82
0 5 13 18 30 27 16 9 30 20 30 23 0 8 -63 19 -107 19 -57 0 -44 17 17 24 33 4
60 11 60 15 0 5 -26 19 -57 32 -80 32 -103 48 -103 73 0 28 27 66 46 66 12 0
13 -10 8 -51 -6 -41 -4 -51 6 -47 22 7 30 55 31 198 1 157 -15 224 -80 330
-21 36 -37 69 -34 73 6 9 34 5 67 -8 16 -7 18 -4 14 23 -4 27 -1 32 15 32 14
0 17 5 13 17 -4 9 -1 20 6 25 17 10 125 10 132 0z m220 -17 c18 -9 47 -31 65
-49 l33 -34 -68 -56 c-37 -30 -70 -53 -75 -51 -9 6 -23 170 -15 190 7 19 20
19 60 0z m1978 -268 c49 -85 70 -128 65 -133 -2 -2 -134 -27 -292 -54 -159
-28 -306 -55 -327 -59 -21 -5 -40 -6 -43 -2 -2 4 3 35 12 68 l17 61 255 95
c141 52 261 93 267 90 5 -2 26 -32 46 -66z m513 -77 c161 -39 295 -109 391
-204 78 -79 101 -128 110 -238 l7 -88 -37 -45 c-21 -25 -58 -57 -84 -72 -40
-23 -57 -27 -117 -26 -38 0 -88 8 -110 16 l-40 14 4 59 c2 32 7 69 12 82 41
108 -50 280 -184 346 -40 20 -66 26 -119 26 l-68 0 0 30 c0 17 7 44 15 60 33
64 84 74 220 40z m-451 -167 c-3 -38 -10 -78 -15 -90 -9 -26 -18 -27 -279 -48
-102 -8 -209 -17 -237 -21 l-53 -5 -30 47 c-16 26 -30 53 -30 60 0 7 15 17 33
23 25 8 314 62 507 94 14 2 44 5 68 6 l44 1 -8 -67z m383 -33 c85 -37 172
-142 173 -207 0 -33 -25 -28 -40 7 -26 64 -178 170 -242 170 -14 0 -33 7 -44
15 -19 15 -19 15 1 31 24 18 88 12 152 -16z m-214 -72 c0 -18 -3 -59 -8 -90
-8 -63 -1 -103 15 -78 11 17 14 -249 4 -324 -10 -67 -30 -59 -38 15 -8 80 -8
492 0 514 10 25 27 1 27 -37z m169 -273 c-1 -231 -8 -290 -32 -290 -13 0 -15
37 -15 245 0 135 4 263 9 285 l8 40 16 -30 c13 -25 16 -66 14 -250z m-92 235
c12 -8 16 -46 18 -222 2 -117 0 -232 -3 -256 -7 -45 -30 -66 -46 -41 -16 25
-6 529 10 529 3 0 13 -5 21 -10z m160 -100 c3 -52 2 -158 -1 -235 -6 -134 -18
-193 -40 -180 -10 7 -12 250 -2 409 5 90 9 106 22 104 13 -3 17 -22 21 -98z
m-414 58 c9 -17 27 -62 39 -99 20 -56 21 -68 9 -73 -8 -3 -157 6 -332 19 -174
14 -323 25 -329 25 -21 0 -15 44 10 81 19 28 31 35 72 42 64 10 371 34 452 36
61 1 63 0 79 -31z m-706 -48 c42 -22 46 -33 30 -89 -7 -27 -5 -41 11 -74 l21
-40 -21 -37 c-12 -21 -21 -45 -21 -54 0 -28 -17 -18 -60 37 l-42 52 6 90 c8
103 14 135 27 135 6 0 28 -9 49 -20z m225 -125 c250 -14 521 -37 530 -46 11
-11 -19 -104 -45 -138 l-17 -24 -264 43 c-145 24 -274 49 -287 57 -48 30 -86
131 -44 119 9 -2 67 -7 127 -11z m-1831 -100 c79 -86 142 -214 164 -333 10
-55 -4 -92 -33 -92 -25 0 -76 74 -148 220 -89 178 -107 228 -86 241 31 20 62
9 103 -36z m1840 -65 c253 -43 452 -81 479 -92 32 -13 34 -29 11 -131 -19 -85
-29 -107 -50 -107 -8 0 -117 22 -242 49 -125 28 -270 57 -322 66 -52 9 -96 17
-97 19 -4 4 36 169 47 194 12 27 21 27 174 2z m-189 -249 c3 -5 0 -30 -7 -55
-16 -61 4 -105 64 -139 80 -47 223 -75 316 -62 61 8 127 59 137 105 9 40 23
47 46 23 17 -16 18 -24 9 -49 -28 -72 -107 -136 -191 -155 -57 -13 -234 6
-304 32 -110 41 -177 136 -156 217 18 66 67 113 86 83z m235 -51 c26 -26 25
-55 -2 -110 -17 -34 -30 -46 -49 -48 -42 -5 -54 19 -39 76 28 100 51 121 90
82z"/>
<path d="M3323 8391 c-18 -5 -40 -14 -48 -21 -21 -18 -19 -73 4 -94 51 -46
208 -62 255 -25 14 11 26 29 26 38 0 24 -35 68 -68 85 -35 18 -128 27 -169 17z"/>
<path d="M3735 8303 c4 -10 12 -46 18 -80 21 -117 -19 -261 -95 -348 -31 -35
-37 -38 -52 -26 -39 33 -31 -29 10 -78 28 -34 50 -41 39 -13 -17 41 -16 48 10
60 15 7 73 12 141 12 125 0 146 6 168 49 14 25 13 32 -10 82 -14 30 -33 62
-42 72 -11 13 -17 37 -17 72 -1 64 -21 97 -81 133 -24 15 -47 36 -50 47 -7 20
-22 35 -38 35 -4 0 -5 -8 -1 -17z m124 -129 c26 -33 26 -45 2 -75 -17 -22 -18
-26 -3 -56 14 -29 14 -34 -2 -57 -11 -18 -25 -26 -46 -26 -18 0 -30 5 -30 13
0 20 20 180 25 205 7 29 29 28 54 -4z"/>
<path d="M3286 6045 c-42 -15 -100 -65 -121 -106 -12 -23 -12 -31 7 -67 20
-41 70 -92 89 -92 11 0 -21 49 -46 70 -37 31 1 111 68 140 47 20 157 37 157
24 0 -5 -7 -18 -15 -28 -21 -28 -18 -59 8 -84 56 -53 172 -70 221 -31 34 26
33 49 -3 88 -73 78 -262 123 -365 86z"/>
<path d="M3765 5966 c-21 -50 -19 -71 10 -84 65 -30 104 -201 71 -316 -10 -32
-15 -60 -12 -63 2 -3 20 21 40 51 20 31 54 76 75 99 60 65 91 117 91 151 0 53
-22 69 -109 80 -30 4 -71 16 -92 27 -32 16 -39 25 -39 49 0 43 -18 46 -35 6z"/>
<path d="M3450 5632 c-30 -14 -35 -22 -35 -52 0 -30 5 -37 42 -58 24 -13 67
-26 95 -29 45 -4 59 -1 88 19 61 42 51 74 -35 114 -60 28 -108 30 -155 6z"/>
<path d="M3545 4536 c-43 -19 -68 -50 -60 -75 9 -29 62 -67 112 -80 76 -21
163 17 163 69 0 26 -54 70 -105 86 -58 17 -71 17 -110 0z"/>
<path d="M3894 4420 c3 -14 9 -68 12 -120 8 -111 -7 -178 -55 -250 -50 -76
-69 -92 -91 -78 -32 20 -36 -1 -10 -50 31 -56 50 -65 50 -23 0 44 25 53 175
62 115 8 132 11 148 30 37 46 22 80 -95 207 -63 69 -98 135 -98 183 0 9 -9 27
-21 40 l-21 24 6 -25z"/>
<path d="M3470 4190 c-63 -15 -79 -68 -32 -113 54 -51 173 -74 220 -41 35 24
31 85 -8 117 -24 21 -112 50 -138 46 -4 -1 -23 -5 -42 -9z"/>
<path d="M4818 4504 c-35 -18 -48 -43 -48 -89 0 -78 46 -139 102 -133 28 3 37
10 56 48 31 60 25 111 -19 156 -36 37 -51 40 -91 18z m68 -32 c17 -11 34 -48
34 -76 0 -61 -50 -105 -86 -75 -39 32 -58 121 -32 147 13 13 67 16 84 4z"/>
<path d="M4998 3825 c-44 -30 -48 -56 -18 -115 42 -82 93 -102 129 -51 35 48
28 85 -26 142 l-48 50 -37 -26z"/>
<path d="M3638 2200 c-27 -16 -58 -75 -58 -109 0 -40 35 -74 94 -91 89 -25
112 9 33 50 -55 29 -66 54 -42 100 24 47 11 72 -27 50z"/>
<path d="M3940 2203 c0 -5 25 -38 56 -74 88 -101 144 -229 144 -330 0 -65 -7
-79 -41 -79 -40 0 -37 -21 7 -60 67 -59 115 -67 74 -13 -13 18 -18 36 -14 46
8 22 69 64 152 106 88 44 102 61 102 119 0 75 -38 102 -202 146 -98 25 -122
37 -188 86 -57 44 -90 63 -90 53z m390 -222 c19 -10 41 -29 49 -43 13 -23 13
-29 -2 -52 -10 -14 -29 -29 -44 -32 -23 -6 -33 -1 -66 37 -52 58 -64 89 -41
106 19 14 53 9 104 -16z"/>
<path d="M3798 1803 c-44 -50 -66 -134 -46 -173 17 -32 84 -70 126 -70 59 0
52 52 -9 65 -60 13 -71 69 -27 142 19 31 19 32 -1 42 -25 14 -25 14 -43 -6z"/>
<path d="M2623 9950 c-60 -36 -76 -102 -51 -209 9 -41 9 -56 -2 -76 -7 -14
-11 -28 -7 -31 3 -3 54 10 114 30 59 20 118 36 131 36 20 0 22 -5 22 -50 0
-60 24 -90 71 -90 43 0 66 15 78 52 12 38 1 103 -22 125 -18 18 -78 19 -162 2
-58 -11 -67 -11 -81 3 -20 20 -29 128 -16 186 10 41 9 42 -17 42 -14 0 -40 -9
-58 -20z"/>
<path d="M26 9851 c-7 -11 -23 -172 -25 -258 -1 -16 15 -30 67 -59 99 -55 183
-114 177 -124 -3 -5 -22 -14 -43 -21 -43 -13 -172 -76 -187 -90 -20 -19 189
57 272 99 l34 18 -140 83 -140 83 -3 141 c-2 88 -6 137 -12 128z"/>
<path d="M766 9749 c-30 -24 -51 -86 -42 -123 4 -17 16 -28 33 -32 22 -6 32
-1 55 25 30 34 36 73 17 115 -16 34 -33 38 -63 15z"/>
<path d="M3810 9271 c0 -5 24 -12 53 -16 73 -10 127 -35 166 -80 53 -61 82
-135 88 -225 4 -49 10 -77 16 -73 14 8 2 158 -17 211 -23 65 -73 131 -124 163
-39 25 -56 29 -114 29 -37 0 -68 -4 -68 -9z"/>
<path d="M1616 9243 c-15 -31 -70 -200 -81 -250 -3 -18 -11 -35 -16 -38 -5 -4
-9 -15 -9 -25 0 -14 20 -25 96 -49 115 -37 194 -71 194 -82 0 -5 -9 -13 -21
-19 -31 -17 -59 -70 -59 -113 0 -48 36 -87 79 -87 65 0 129 94 110 162 -12 46
-35 65 -132 113 -67 33 -82 45 -85 65 -1 14 12 77 31 140 25 87 37 116 51 118
10 2 56 -8 102 -22 85 -27 99 -41 68 -67 -42 -35 -59 -132 -28 -163 20 -20 92
-20 118 -1 32 24 56 68 56 102 0 64 -90 121 -323 204 -59 22 -114 39 -122 39
-8 0 -21 -12 -29 -27z"/>
<path d="M4140 9197 c0 -8 9 -22 20 -32 28 -26 60 -118 67 -194 8 -94 16 -104
42 -52 15 28 28 41 39 39 18 -3 46 -68 59 -133 l8 -40 3 52 c2 37 -3 67 -17
99 -20 45 -21 46 -63 42 l-42 -3 -8 42 c-4 24 -16 63 -27 88 -35 80 -81 131
-81 92z"/>
<path d="M6670 9181 c0 -8 -8 -10 -22 -5 -22 6 -22 6 -5 -19 21 -33 21 -37 -1
-37 -15 0 -17 -7 -14 -42 2 -24 8 -47 13 -52 14 -15 11 -26 -7 -26 -15 0 -15
-2 0 -25 21 -32 20 -38 -4 -32 -11 3 -20 3 -20 1 0 -7 82 -114 87 -114 3 0 -5
15 -16 34 -25 40 -26 50 -6 42 19 -7 19 4 -1 32 -16 23 -6 30 14 10 10 -10 11
-5 6 20 -4 21 -3 32 5 32 19 0 12 25 -14 50 -27 26 -33 42 -11 34 20 -8 30 14
14 33 -10 13 -10 17 0 20 17 6 15 28 -3 43 -11 9 -15 10 -15 1z"/>
<path d="M310 9080 c-153 -57 -330 -148 -303 -157 6 -2 33 7 60 20 139 71 303
132 303 113 0 -18 -40 -238 -45 -246 -6 -10 24 -34 132 -110 40 -27 77 -59 83
-69 9 -18 2 -22 -83 -49 -51 -17 -152 -58 -224 -91 -73 -34 -137 -61 -143 -61
-6 0 -27 33 -45 73 -33 70 -34 71 -35 35 0 -41 12 -75 193 -553 68 -181 152
-413 185 -515 126 -384 398 -1365 505 -1820 291 -1240 444 -2029 621 -3195 30
-198 62 -420 71 -494 25 -213 34 -535 24 -931 -11 -459 -24 -628 -70 -876 -11
-61 -19 -122 -16 -135 3 -21 6 -19 23 20 l18 44 176 -6 c154 -5 315 -24 364
-43 37 -14 11 64 -64 197 -33 58 -39 77 -32 94 5 11 44 69 86 129 42 60 76
112 76 116 0 19 -332 55 -454 48 l-76 -3 0 105 c0 58 4 111 9 119 23 36 311
42 473 11 56 -11 106 -16 110 -12 10 10 -27 83 -105 209 -31 51 -57 98 -57
104 0 14 68 139 123 227 22 35 36 66 32 70 -3 4 -134 8 -290 10 l-283 3 -7
145 c-4 80 -5 148 -1 151 3 3 43 15 88 26 62 14 137 21 302 26 144 4 221 10
223 17 2 6 -33 66 -78 133 l-82 123 42 132 c22 73 41 138 41 144 0 9 -14 11
-47 7 -96 -11 -420 -45 -489 -51 l-71 -6 -23 157 c-15 104 -19 160 -13 166 16
16 226 55 363 68 176 17 192 20 185 40 -12 33 -71 124 -117 181 -58 71 -59 86
-18 225 16 55 30 115 30 134 0 31 -2 33 -27 28 -288 -62 -514 -100 -524 -89
-8 8 -36 172 -41 237 -3 38 -2 40 37 53 64 21 252 60 350 72 139 17 155 20
155 33 0 7 -38 55 -85 107 -50 56 -85 104 -85 116 0 12 13 64 29 115 15 52 31
107 35 123 l7 29 -68 -7 c-37 -3 -138 -22 -223 -42 -85 -19 -177 -39 -203 -43
-58 -10 -56 -13 -88 151 l-21 112 20 17 c34 27 356 89 465 89 46 0 57 3 57 17
0 19 -35 66 -107 145 -63 68 -66 92 -29 208 13 41 27 93 31 114 l8 39 -49 -6
c-27 -3 -137 -26 -245 -51 -218 -51 -255 -55 -263 -28 -14 46 -76 333 -76 352
0 26 35 42 173 75 88 22 190 39 365 61 24 3 42 11 42 18 0 7 -41 56 -91 110
l-91 97 37 127 c20 70 39 135 42 146 5 17 1 18 -43 12 -27 -4 -146 -29 -264
-56 -277 -63 -286 -64 -295 -51 -4 7 -22 69 -40 139 -26 99 -31 130 -22 141
21 25 188 98 312 136 237 72 259 80 262 91 6 19 -64 95 -140 155 -51 39 -73
63 -75 80 -2 14 6 70 17 124 21 100 26 145 15 145 -29 0 -330 -101 -409 -137
-55 -25 -109 -46 -119 -47 -17 -1 -24 16 -50 117 l-31 119 25 20 c56 46 378
194 488 224 34 9 62 23 62 30 0 14 -102 102 -172 148 -26 17 -51 39 -54 50 -3
10 2 79 12 152 10 74 15 137 11 141 -11 10 -167 -52 -346 -138 -90 -43 -167
-79 -171 -79 -16 0 -120 286 -120 332 0 21 10 30 68 56 37 17 114 45 172 62
238 72 275 85 278 100 3 18 -99 122 -165 169 -24 17 -45 41 -48 54 -4 13 3 69
14 124 26 125 27 157 5 149 -8 -3 -50 -15 -92 -26 -99 -25 -193 -57 -316 -109
-54 -22 -102 -41 -106 -41 -8 0 -62 131 -75 181 -6 25 -2 28 127 86 73 33 174
75 223 93 50 18 103 37 118 43 l28 10 -33 34 c-18 19 -70 62 -115 95 -96 70
-94 61 -68 253 8 60 11 113 7 117 -4 3 -41 -6 -82 -22z m360 -766 c0 -9 -7
-59 -16 -111 -9 -51 -13 -104 -10 -117 4 -15 35 -45 85 -80 78 -54 121 -97
121 -121 0 -7 -57 -28 -132 -50 -73 -21 -176 -55 -229 -76 -53 -20 -106 -39
-118 -41 -27 -4 -31 4 -122 265 l-58 167 49 25 c73 37 242 103 334 130 98 29
96 29 96 9z m310 -831 c0 -10 -7 -58 -15 -108 -25 -152 -29 -142 83 -218 54
-36 106 -75 116 -86 17 -19 16 -20 -41 -36 -86 -24 -150 -50 -333 -137 l-165
-78 -13 30 c-7 17 -37 117 -68 222 -63 221 -67 200 48 263 94 51 350 165 371
165 10 0 17 -7 17 -17z m226 -840 c-23 -136 -28 -183 -22 -206 4 -19 28 -41
76 -72 72 -48 130 -106 130 -130 0 -15 -24 -24 -148 -55 -94 -23 -196 -60
-320 -115 -46 -20 -86 -35 -88 -32 -3 3 -27 87 -54 188 -27 101 -54 199 -59
218 -13 44 -1 59 77 96 108 52 362 142 406 144 5 1 6 -16 2 -36z m279 -875
c-19 -55 -65 -224 -65 -238 0 -10 34 -55 75 -101 41 -45 72 -86 67 -91 -4 -4
-57 -15 -117 -22 -130 -18 -236 -39 -324 -66 -35 -11 -69 -20 -77 -20 -14 0
-35 62 -83 257 -38 148 -39 171 -8 182 58 22 455 109 504 110 22 1 31 -3 28
-11z m155 -912 c0 -2 -11 -42 -25 -90 -14 -47 -29 -104 -34 -127 l-9 -41 79
-89 c91 -101 96 -91 -56 -109 -49 -6 -148 -24 -219 -40 -72 -17 -137 -30 -146
-30 -13 0 -23 37 -53 193 -20 105 -37 200 -37 210 0 11 13 23 33 31 27 12 300
76 377 89 35 6 90 8 90 3z m160 -790 c0 -2 -16 -55 -35 -117 -19 -63 -35 -122
-35 -131 0 -9 37 -55 81 -103 45 -47 80 -87 78 -89 -2 -2 -61 -11 -130 -20
-69 -8 -174 -27 -233 -41 -169 -41 -154 -54 -198 170 -44 228 -45 232 -15 241
94 30 487 103 487 90z m156 -813 c-3 -10 -21 -76 -41 -147 l-35 -129 48 -56
c60 -69 122 -155 122 -169 0 -6 -34 -13 -77 -17 -106 -9 -282 -32 -373 -49
-49 -10 -77 -11 -81 -5 -7 13 -79 445 -79 477 0 28 23 37 120 46 41 4 136 20
210 36 166 35 193 36 186 13z m188 -932 c3 -5 -14 -64 -38 -132 l-43 -123 53
-63 c55 -65 100 -140 89 -151 -3 -3 -34 -5 -68 -4 -82 2 -279 -14 -395 -34
-52 -9 -96 -14 -98 -11 -6 6 -54 385 -54 430 0 45 21 57 103 58 29 0 120 8
202 18 174 21 242 25 249 12z m22 -917 c-4 -14 -29 -65 -56 -114 -27 -48 -55
-104 -63 -122 l-15 -34 79 -120 c43 -65 79 -125 79 -132 0 -10 -10 -12 -37 -8
-84 14 -306 24 -402 19 l-101 -6 0 272 0 271 261 0 261 0 -6 -26z m-189 -825
c101 -11 143 -22 143 -38 0 -16 -121 -192 -136 -198 -23 -9 -16 -45 22 -107
48 -80 86 -157 81 -163 -3 -2 -51 3 -108 11 -57 8 -165 18 -239 22 -132 7
-186 16 -176 32 2 4 14 77 26 162 28 206 38 260 51 276 14 17 195 19 336 3z"/>
<path d="M361 5142 c-71 -35 -94 -105 -71 -213 11 -49 11 -64 0 -84 -7 -14
-11 -28 -8 -31 4 -3 56 11 117 30 112 36 141 42 142 29 0 -5 1 -28 3 -52 7
-119 166 -103 166 17 0 37 -34 90 -63 97 -13 4 -54 -1 -91 -9 -91 -22 -113
-20 -127 7 -22 39 -27 109 -14 162 19 71 9 80 -54 47z"/>
<path d="M6449 2743 c-10 -27 -7 -151 7 -279 6 -48 5 -51 -18 -50 -23 1 -23
-1 -23 -91 0 -50 -3 -94 -7 -99 -12 -11 -9 -89 6 -194 15 -98 14 -110 -9 -110
-27 0 -25 -39 15 -215 44 -195 48 -236 25 -255 -18 -15 -14 -58 12 -170 15
-63 50 -146 58 -138 2 2 -2 31 -10 65 -21 90 -35 185 -29 195 3 5 12 4 19 -2
22 -18 27 5 14 69 -10 52 -9 63 6 89 17 27 17 34 1 118 -10 57 -14 111 -10
149 4 37 0 94 -10 150 -20 113 -20 144 0 183 14 29 14 47 0 197 -9 92 -16 222
-16 291 0 125 -9 153 -31 97z"/>
<path d="M695 2126 c-31 -96 -54 -180 -50 -186 3 -5 12 -10 19 -10 24 0 231
-69 251 -84 20 -14 19 -16 -18 -53 -62 -64 -68 -130 -15 -167 36 -25 85 -20
115 12 59 63 66 140 16 187 -15 13 -64 41 -110 61 -96 43 -94 38 -62 163 26
105 45 150 65 158 16 6 95 -15 163 -43 l34 -14 -32 -34 c-55 -57 -59 -132 -9
-169 24 -18 32 -19 67 -8 80 23 116 116 70 175 -12 15 -46 39 -78 55 -73 37
-286 117 -332 126 l-37 7 -57 -176z"/>
<path d="M2528 1191 c-114 -36 -210 -69 -213 -73 -4 -4 17 -44 48 -90 30 -46
74 -121 98 -167 24 -46 50 -86 57 -88 7 -3 56 11 110 31 53 20 113 39 133 42
l36 6 5 -62 c4 -53 9 -67 32 -87 40 -34 90 -31 127 8 43 46 47 89 14 144 -14
26 -32 49 -40 51 -7 3 -79 -9 -160 -27 -83 -18 -150 -28 -155 -23 -14 14 -150
262 -150 273 0 11 89 46 143 56 l37 7 0 -50 c0 -97 85 -148 145 -87 44 43 28
166 -24 195 -11 5 -23 10 -28 9 -4 -1 -101 -31 -215 -68z"/>
<path d="M152 873 c-41 -16 -59 -143 -22 -163 60 -32 119 85 74 148 -15 22
-27 25 -52 15z"/>
</g>
</svg>
